<svg xmlns="http://www.w3.org/2000/svg" xmlns:xlink="http://www.w3.org/1999/xlink" version="1.1" id="Layer_1" x="0px" y="0px" width="250.1px" height="250.1px" viewBox="0 0 250.1 250.1" enable-background="new 0 0 250.1 250.1" xml:space="preserve">
<path fill="#9D7C2F" d="M125.05,0.05c-69.04,0-125,55.96-125,125s55.97,125,125,125s125-55.97,125-125S194.09,0.05,125.05,0.05z    M125.05,223.35c-54.28,0-98.29-44.01-98.29-98.29c0-54.28,44.01-98.29,98.29-98.29c54.29,0,98.3,44.01,98.3,98.29   C223.35,179.34,179.34,223.35,125.05,223.35z"/>
<path d="M125.05,3.53C57.94,3.53,3.53,57.94,3.53,125.05s54.4,121.52,121.52,121.52c67.11,0,121.52-54.4,121.52-121.52   C246.57,57.94,192.16,3.53,125.05,3.53 M125.05,225.93c-55.71,0-100.88-45.16-100.88-100.88S69.34,24.17,125.05,24.17   c55.72,0,100.88,45.16,100.88,100.88S180.77,225.93,125.05,225.93"/>
<path fill="#9D7C2F" d="M101.08,115.91l-20.57,6.36c-0.95,0.29-1.73,1.34-1.75,2.34l-0.69,63.64c-0.01,0.99,0.63,2.29,1.42,2.89   l0.6,0.45c0.8,0.59,1.56,0.28,1.7-0.71l0.07-0.5c0.14-0.98,1.03-2,1.99-2.27l1.76-0.49c0.96-0.27,1.78,0.33,1.82,1.32l0.14,3.38   c0.04,0.99,0.57,1.81,1.17,1.81s1.16-0.81,1.24-1.8l0.3-3.68c0.08-0.99,0.92-2.02,1.88-2.29l2.2-0.62   c0.96-0.27,1.75,0.32,1.76,1.31l0.1,7.45c0.01,0.99,0.82,1.97,1.79,2.18l1.27,0.27c0.98,0.21,1.79-0.44,1.81-1.43l1.67-78.34   C102.79,116.19,102.03,115.62,101.08,115.91 M87.68,179.08c-0.01,0.99-0.79,2.05-1.73,2.36L84,182.07   c-0.95,0.31-1.7-0.26-1.68-1.25l0.79-35.81c0.02-0.99,0.8-2.1,1.72-2.46l1.5-0.59c0.93-0.36,1.68,0.16,1.67,1.15L87.68,179.08z    M96.7,176.4c-0.01,0.99-0.79,2.05-1.74,2.33l-2.27,0.7c-0.95,0.29-1.72-0.29-1.71-1.28L91.21,142c0.01-0.99,0.77-2.1,1.7-2.46   l2.36-0.91c0.92-0.36,1.68,0.16,1.67,1.16L96.7,176.4z M97.27,130.46c0,0.99-0.78,2.04-1.73,2.31l-10.07,2.92   c-0.95,0.28-1.73-0.31-1.73-1.3l0.02-4.15c0-0.99,0.78-2.05,1.73-2.34l10.06-3.11c0.95-0.29,1.73,0.28,1.73,1.27L97.27,130.46   L97.27,130.46z M99.81,187.76c0,0-0.1,2.2-0.4,2.38c-0.3,0.18-1.02,1.55-1.56-1.85c-0.54-3.4-0.22-3.47-0.22-3.47   c0.98-0.19,1.88-0.02,2.01,0.4C99.79,185.62,99.86,186.77,99.81,187.76 M109.69,166.91c0.98-0.11,1.79,0.61,1.79,1.61v5.86   c0,0.99-0.76,2.09-1.7,2.42l-3.16,1.14c-0.94,0.34-1.7,1.43-1.71,2.42l-0.12,20.08c-0.01,1-0.61,1.81-1.34,1.81   c-0.73,0-1.31-0.81-1.29-1.81l1.6-83.27c0.02-0.99,0.63-2.01,1.36-2.27c0.73-0.26,1.31,0.35,1.28,1.34l-1.24,49.35   c-0.03,0.99,0.76,1.72,1.75,1.61L109.69,166.91 M138.67,115.38c1,0,1.81,0.81,1.81,1.81v1.86c0,0.99-0.81,1.81-1.81,1.81h-29.14   c-0.99,0-1.81-0.81-1.81-1.81v-1.86c0-0.99,0.82-1.81,1.81-1.81H138.67 M138.65,122.25c1,0,1.83,0.69,1.83,1.53   c0,0.85-0.82,1.53-1.83,1.53h-29.11c-1,0-1.82-0.69-1.82-1.53s0.82-1.53,1.82-1.53H138.65 M166.77,123.23l-19.55-6.28   c-0.95-0.3-1.72,0.26-1.72,1.25v64.27c0,1,0.41,1.96,0.91,2.16c0.49,0.19,0.83,1.16,0.73,2.15l-0.07,0.73   c-0.1,0.99-0.9,1.42-1.78,0.97l-0.55-0.3c-0.88-0.46-1.59-1.64-1.58-2.63l0.79-66.78c0.01-0.99-0.51-1.93-1.16-2.09   c-0.66-0.15-1.19,0.54-1.21,1.53l-1.07,84.9c-0.02,0.99,0.77,1.63,1.74,1.42l4.69-1.03c0.97-0.21,1.77-1.2,1.77-2.19v-11.16   c0-0.99,0.8-1.69,1.79-1.54l2.98,0.44c0.99,0.15,1.79,1.08,1.79,2.07v5.86c0,0.99,0.57,1.62,1.25,1.39   c0.69-0.23,1.26-1.23,1.26-2.22v-4.61c0-0.99,0.78-1.57,1.73-1.27l1.98,0.61c0.95,0.29,1.73,1.34,1.73,2.33v7.26   c0,0.99,0.75,1.81,1.67,1.81s1.69-0.81,1.72-1.81l1.86-74.86C168.48,124.59,167.72,123.53,166.77,123.23 M155.27,181.21   c-0.01,0.99-0.81,1.64-1.78,1.43l-2.88-0.63c-0.98-0.21-1.76-1.2-1.74-2.19l0.63-37.64c0.02-1,0.83-1.66,1.81-1.47l2.44,0.46   c0.98,0.18,1.77,1.15,1.77,2.14L155.27,181.21z M163.53,183.03c-0.02,0.99-0.83,1.59-1.78,1.34l-2.33-0.61   c-0.96-0.25-1.73-1.28-1.72-2.27l0.63-37.65c0.02-0.99,0.82-1.62,1.79-1.4l2.56,0.59c0.97,0.22,1.74,1.22,1.72,2.21L163.53,183.03z    M164.45,135.91c0,0.99-0.78,1.57-1.72,1.27l-11.46-3.53c-0.95-0.29-1.73-1.35-1.73-2.34v-4.19c0-0.99,0.77-1.56,1.73-1.26   l11.47,3.64c0.95,0.3,1.72,1.36,1.72,2.35L164.45,135.91L164.45,135.91z M169.46,116.39c1.08,0,1.96,0.88,1.96,1.96v3.47   c0,1.08-0.7,1.42-1.56,0.77c0,0-5.34-4.1-16.84-6.19L169.46,116.39 M80.54,116.25c0-0.99,0.81-1.76,1.81-1.71l13.95,0.75   c0.99,0.05,1,0.24,0.03,0.41c0,0-13.08,2.36-15.79,5.16L80.54,116.25 M170.37,125.32c0.58,0,1.04,0.81,1.02,1.81l-1,66.78   c-0.02,0.99-0.5,1.81-1.07,1.81s-1.03-0.81-1.02-1.81l0.99-66.78C169.32,126.13,169.8,125.32,170.37,125.32 M71.27,113.89   c0,0.99-0.81,1.81-1.81,1.81H48.62c-0.99,0-1.81-0.81-1.81-1.81v-0.98c0-0.99,0.81-1.81,1.81-1.81h20.85c1,0,1.81,0.81,1.81,1.81   v0.98 M66.04,120.35v-1.78c0-0.77-0.63-1.41-1.4-1.41H52.61c-0.78,0-1.41,0.63-1.41,1.41v1.78c0,0.77,0.63,1.41,1.41,1.41h12.03   C65.41,121.76,66.04,121.13,66.04,120.35 M62.25,123.75l-7.88-0.27c-0.88-0.03-1.12,0.49-0.54,1.14l3.42,3.88   c0.58,0.66,1.54,0.67,2.15,0.04l3.35-3.58C63.35,124.33,63.12,123.78,62.25,123.75 M179.4,118h20.85c0.99,0,1.81-0.81,1.81-1.81   v-0.98c0-0.99-0.82-1.81-1.81-1.81H179.4c-1,0-1.81,0.81-1.81,1.81v0.98C177.59,117.19,178.4,118,179.4,118 M196.83,122.65v-1.78   c0-0.77-0.64-1.41-1.41-1.41h-12.03c-0.77,0-1.41,0.63-1.41,1.41v1.78c0,0.77,0.64,1.41,1.41,1.41h12.03   C196.19,124.06,196.83,123.43,196.83,122.65 M193.03,126.05l-9.47-0.32l5.53,6.27l4.45-4.74   C194.13,126.63,193.91,126.08,193.03,126.05 M48.65,108.62c-0.21,0.67,0.16,1.38,0.82,1.59s1.37-0.16,1.58-0.82   c10.24-32.53,38.78-54.56,71.35-55.31c-0.32-0.3-0.56-0.6-0.74-0.84c-0.09-0.12-0.18-0.23-0.27-0.34l-0.6-0.61l-0.02-0.72   C87.78,53.01,59.05,75.57,48.65,108.62 M161.93,63.95c16.3,9.73,29.08,25.65,35.24,45.42c0.17,0.54,0.67,0.89,1.2,0.89   c0.12,0,0.25-0.02,0.38-0.06c0.66-0.21,1.03-0.94,0.82-1.61c-6.26-20.09-19.15-36.31-35.6-46.39c0.89-0.45,1.95-0.73,2.21-1.8   c-0.77-1.21-3.77-0.95-4.52,0.2c-0.91-1.66-4.58-2.57-6.81-1.8v1.6c1.12,0.69,1.95,1.66,4.01,1.41c0.2,0.47,0.07,1.27,0.8,1.2   c1.28,0.14,1.94-0.53,2.14-1.2c0.35,0.33,0.93,0.55,1.51,0.8c0.01-0.01,0.04-0.02,0.05-0.04C163,63.13,162.55,63.63,161.93,63.95    M39.43,91.73c-1.11-1.46-3.74-1.48-2.01-4.01c0.61-0.89,1.9-2.18,3.22-2.01c1.04,0.14,2.56,2.18,2.61,2.81   c0.09,1.28-0.99,2.22-2.41,2.81c-0.02,0.63,0.09,1.11,0.4,1.41c-0.55,0.6-0.93,1.35-1.81,1.61c-0.13-0.47-0.66-0.54-0.8-1   C38.42,92.32,39.22,92.32,39.43,91.73 M208.44,95.34c0.71,0.23,1.43,0.44,1.81,1c0.06,0.74-0.17,1.78,0.2,2.21   c1.64,0.37,1.44-1.1,1.4-2.41c0.71-0.76,2.19-0.76,2.41-2.01c-1.43-1.25-1.98-3.37-3.81-4.22   C209.34,91.29,208.08,92.51,208.44,95.34 M37.43,99.36c0.05,1.29,0.95,1.72,1.81,2.21c1.27-0.54,2.35-1.27,3.61-1.81   c0.35,0.85,0.95,1.45,1.81,1.81c0.87-0.13,1.28-0.73,2.2-0.8c-1.04-1.64-2.11-3.24-3.81-4.21c-0.79-0.05-0.61,0.86-1.4,0.8   c-0.26-0.82-0.76-1.38-1.21-2.01h-2.81c-0.59,2.42-3.33,2.69-3.81,5.22C35.23,101.74,36.31,99.75,37.43,99.36 M212.05,100.16   c1.48,0.26,1.64,1.63,2.61,2.61c0.65,0.65,1.48,0.72,2.01,1.4c-0.04,0.96-0.93,1.08-0.6,2.41c1.23,0.58,2.71,0.91,3.01,2.41   c-3.02,1.29-4.94-1.79-8.03-1.4c-1.28,0.16-3.02,1.23-5.02,0.2c-0.4,1.2-2.83,2.3-4.21,1.2c-0.06-1.31,1.33-1.27,2-2.01   c1.51-1.63,2.01-4.69,3.61-6.22c1.34-0.44,2.59-0.08,3.61-0.2C211.4,100.52,211.64,100.09,212.05,100.16 M207.83,105.58   c1.15,0.28,1.29-0.46,2.01-0.6c-0.41-0.52-0.81-1.07-0.61-2.21h-1.2c0.16,1.17-0.95,1.05-0.6,2.41   C207.66,105.22,207.74,105.4,207.83,105.58 M214.66,106.18c-0.07-2.04-2.56-2.84-3.61-1.2   C211.69,105.94,213.47,105.77,214.66,106.18 M33.21,105.78c-1.75,0.21-2.64-0.44-2.41-2.21c2.21-0.77,5.28-2.24,8.03-1.2   c1.47-1.51,3.74,1.42,5.42-0.4c1.44,1.23,4.03,1.32,5.02,3.01c-0.76,0.18-1.41,0.46-1.8,1c-1.57-0.84-4.09-0.73-5.42-1.81   c-0.4,0-0.25,0.55-0.8,0.4c0.21,1.5,1.47,2.2,0.8,4.02c1.23-0.31,1.24-1.84,2.21-2.41c1.13,0.49,1.65,0.62,2.21,1.81   c0.89,1.88-0.73,2.38-1.6,5.22c-0.18,0.58-0.04,1.21-0.2,1.61c-0.33,0.79-1.26,1.7-0.8,3.61c-0.43,0.44-0.98,0.77-2.01,0.6   c-0.28-0.26-0.12-0.95-0.4-1.2c-1.44-0.36-1.44,0.7-2.61,0.6c-0.26-1.55-1.35-2.26-1.4-4.01c-0.63,1.04,0.32,3.67-0.6,4.41   c-0.52-0.28-1.21-0.4-1.81-0.6c-0.47-1.16-0.31-2.34-0.6-3.61c-0.36-1.54-1.14-2.35-1.4-4.41c-0.25-1.86-1.33-2.46-0.2-4.01   c1.61,0.27,2.81-0.97,3.61,0.2c0.63-0.04,0.34-1,0.4-1.6c-1.3,0.24-1.88,0.1-3.21-0.2C33.16,104.66,33.61,105.64,33.21,105.78    M37.63,108.99c-0.4-0.27-0.78-0.56-0.6-1.4h-0.6c0.11,0.91-0.29,1.31-1.2,1.2c-0.02,0.7,1.02,0.32,1,1   c0.08,0.72-0.07,1.68,0.6,1.81C37.07,110.71,37.24,109.75,37.63,108.99 M213.05,112.8c-0.16-1.24,0.58-1.56,0.61-2.61   c-0.66-0.61-0.71-1.84-1.81-2.01c-1.11,1.33-2.81-0.17-4.02,1.21c-0.12,0.48,0.26,1.46-0.2,1.6c-1.23-0.52-2.76-2.26-4.01-0.4   c-0.54,4.35,1.8,5.83,1.81,9.64c0.71,0.63,0.79,1.89,2.21,1.81c0.92-0.35,0.39-2.16,1.81-2.01c0.33,0.27,0.07,1.14,0.41,1.4   c1.22,0.22,1.66-0.35,2.41-0.6c0.74,0.27,0.71,1.3,1.6,1.4c1.28-0.91,1.94-2.96,2.21-5.02c0.31-2.38,2.21-4.6,0.8-7.23   C214.22,108.82,214.65,112.27,213.05,112.8 M29.2,111.8c-0.29,1.36,2.53,1.78,2.61,0.4C31.31,111.18,30.05,111.02,29.2,111.8    M217.95,116.22c0.26,0.76,1.55,1.46,2.25,0.6C220.48,115.21,218.12,114.62,217.95,116.22 M42.84,120.03   c-3.03,0.18-6.92-0.5-7.82,1.81c1.09,1.47,3.51-0.04,5.62,0.2c1.21,0.14,2.32,1.33,3.21,0.2   C44.04,120.98,43.13,120.81,42.84,120.03 M42.04,125.45c-0.63-1.1-1.17-2.3-2.81-2.41c-0.99,0.82-2.95,0.67-2.41,3.01   c1.02,0.12,1.43,0.85,2.21,1.2C40.23,126.52,41.63,127.09,42.04,125.45 M214.86,124.85c-0.56-2.37-9.43-2.9-8.83,0.4   c0.08,0.43,0.59,0.44,0.81,1c1.4-0.89,5.63-0.95,7.02,0C214.05,125.64,214.84,125.63,214.86,124.85 M208.04,130.67   c2.83,1.94,6.06-2.24,3.42-4.02c-1.77-0.29-2.51,0.44-3.62,0.8C207.93,128.5,207.62,129.95,208.04,130.67 M117.71,36.73   c0.17,1.23-0.16,1.98-0.4,2.81c1.09,0.77,2.11,1.48,3.21,1.2c0.76-0.2,0.72-0.62,1.21-1.2c0.85-1.03,1.19-1.29,2.81-1.21   c0.75-1.85,0.85-4.37,1-6.82l-3.01,0.6c-0.99,0.18-2.51,0.06-2.41,1.81c-1.82,0.25-3.6,0.55-4.21,2.01   C115.66,37.04,117.43,36.15,117.71,36.73 M131.16,39.14c-0.16-1.39,0.56-2.32,0.6-4.01c-1.19-1.02-1.76-2.65-3.61-3.01   c-0.34,1.63-2.09,2.29-2.21,3.81c-0.13,1.55,1.57,2.82,1.4,4.82C128.89,40.48,129.87,39.66,131.16,39.14 M108.48,44.96   c0.62-1.79,2.56-2.26,3.41-3.81c-1.89-2.34,1.37-3.54,2.01-5.22c-2.54,0.13-3.15-1.67-5.22-2.01c-0.43,0.79-0.16,2.37,0,3.21   c-1.3,0.95-4.04,3.15-4.42,4.61c-0.35,1.36-0.17,3.47,0.8,4.41C106.05,45.6,107.26,45.28,108.48,44.96 M145.81,36.73   c-0.71,3.98,1.84,4.01,3.01,1.81c0.98,0.49,1.51,1.44,2.81,1.61c1.6-1.3-0.31-3.48-1-4.42h-2.41c-0.93-0.47-1.14-1.67-2.41-1.81   c-0.5,0.91-2.28,0.53-1.81,2.41C144.26,36.81,145.59,36.22,145.81,36.73 M139.39,39.55c1.98,0.04,3.74-0.14,4.61-1.21   c-0.61-1.79-3.46-1.61-4.82-0.6C139.23,38.37,139.06,39.21,139.39,39.55 M145.62,43.16c0.48,0.8-0.17,0.82-0.21,1.6   c0.86,0.08,1.25,0.63,1,1.81c0.89,0.65,2.13,0.95,3.01,1.61c1.76-0.32,2.56-1.59,3.82-2.41c0.24-1.03-0.12-2.66,0.8-3.01   c0.55,0.26,1.12,0.49,2.01,0.4c0.2,0.67,0.64,1.1,0.8,1.81c1.8-1.28,2.71-3.45,4.82-4.41c-0.53-1.28-1.5-2.11-3.62-1.81   c-0.95-0.85-2.58-2.77-3.82-1v3.41c-1.27,0.93-4.07,0.35-5.02,1.61C147.85,41.92,146.89,42.83,145.62,43.16 M161.87,48.78   c-0.03-1.04-1.38-0.76-1.6-1.6c-1.08,0.46-1.93,1.14-3.21,1.4c0.76,1.24,0.41,3.6,1.4,4.62c1.95-0.45,4.32-0.19,5.42,0.8   c0.25-0.42,0.58-0.75,1-1c0.03-1.57-0.22-2.85-0.6-4.01c0.6-0.74,0.96-1.71,2.01-2.01c0.8,0.33,1.17,1.09,2.41,1   c0.7-2.13,1.26-7.36-2.61-6.22c-0.71-0.16-0.52-1.22-1.4-1.2c-2.05-0.19-3.1,2.23-2.61,4.01c0.29,1.08,1.66,1.12,1.8,2.01   C162.75,46.85,162.91,48.41,161.87,48.78 M137.58,47.17c0.18,0.49,0.18,1.16,0.81,1.2c1.67-0.61,2.9-1.9,5.02-1   c0.58-0.9,1.01-1.89,0.4-3.01c0.29-0.31,0.81-0.4,0.6-1.2c-0.26-0.35-0.41-0.79-1-0.8c-1.1,0.45-1.73,1.36-2.81,1.81   c-0.01-0.4-0.55-0.26-0.41-0.8c0.28-0.45,1.31-0.16,1.2-1v-0.81c-0.82-0.78-2.97-0.24-4.41-0.4c-0.12,1.4-2.12,2.56-2.01,3.81   C135.08,46.13,136.5,46.38,137.58,47.17 M119.52,41.95c-0.33-0.34-1.17-0.16-1.81-0.2c-0.05,2.66-4.07,2.93-6.02,2.41   c-1.15,1.01-1.81,3.51-1.21,5.62c2.58,0.64,0.47-3.42,2.21-3.61c1.7,0.55,3.23-0.56,4.82-0.6c2.25-0.07,5.58,1.98,7.02-0.4   c-0.12-1.61-2.1-0.69-3.41-1c-0.6-0.15-0.95-0.86-1.4-0.8C119.72,42.83,119.8,42.21,119.52,41.95 M68.94,58.81   c2.14,1.15,6.32,0.36,8.23,1.2c0.18,1.43,0.29,2.93,1.2,3.62c1.9-0.38,0.61-3.94,2.61-4.22c0.67,0.13,1.03,0.58,2.01,0.4   c0.55-1.62,2.31-0.35,3.21-1c-0.08-1.03-0.81-3.04-1.4-4.21c1.22-0.12,1.39-1.28,2.41-1.61c3.17,0.35,7.8,0.61,11.44,0.6   c1.18,0,3.08,0.16,3.61-1c-0.28-1.04-1.95-0.5-2.61-0.2c-1.17-0.57-3.18-0.3-4.02-1.21c0.11-2.57-0.68-6.03,1.81-6.22   c1.14,1.05,3.31,0.3,4.22-0.6c-1.81-1.67-6.55-0.41-9.64-0.8c-0.2,0-0.24,0.16-0.4,0.2c-0.41,1.48,1.44,1.59,1.81,2.81   c0.8,2.68-0.8,4.7-2.81,5.42c-1.9-1.52-4.76,0.18-7.22,0c-1.59,1.05,0.07,2.79-0.2,4.82c-0.73,0.07-1.14,0.47-1.4,1   c-0.7,0.16-0.77-0.3-1.4-0.2c-4.27,1.02-10.67-0.09-15.26,0.61C65.25,59.88,68.01,59.56,68.94,58.81 M168.09,57.61   c0.22,1.96-0.33,3.15-0.6,4.62c0.81,1.58,2.53-0.08,4.02,0.6c1.03-1.24,2.96-1.58,3.01-3.81c-0.44-0.58-1.25,0.46-1.4-0.4   c0.06-1.07,0.32-1.95,1.2-2.21c0.7,0.43,0.51,1.77,1.6,1.81c1.75-0.33,1.62-2.53,2.81-3.42c1.05,0.67,2.78-0.49,3.22,0.6v2.21   c1.36-0.05,1.52-1.29,1.8-2.41c1.69,0.79,2.43,2.52,2.61,4.82c1.29-0.18,2.24-0.71,3.61-0.8c0.44-0.92,0.17-2.66-0.2-3.41   c-0.62-0.15-0.38,0.55-1,0.4c-1.4-0.53-1.82-2.06-4.02-1.81c-0.78-0.76-0.57-2.5-1.61-3.01c-0.69-0.16-0.77,0.3-1.4,0.2   c-0.67-0.8-0.95-1.99-1.4-3.01c-2.05-0.13-2.55,2.74-1.4,4.01c-3.22,1.41-2.72-2.13-2.01-4.21c-1.28-1.39-3.08-2.28-4.01-4.01   c-0.69,0.36-0.97-0.03-1.81,0c-1.26,1.75,0.36,3.4,0.8,4.82c0.16,0.53,0.08,1.14,0.2,1.4c0.32,0.69,1.09,1.06,1.21,1.81   c0.28,1.81-0.8,2.98-1.81,4.42C169.88,56.59,169.21,57.32,168.09,57.61 M130.56,48.38c-0.82-0.72-2.17-3.09-3.41-2.61   c-1.04,0.4-2.6,1.06-3.62,1.6c0.41,2.08-0.66,2.69-0.6,4.41c0.74,0.74,1.07,1.88,2.81,1.61c0.78-0.63,0.44-2.38,1.81-2.41   C127.13,48.69,129,48.68,130.56,48.38 M81.79,52.59c-0.78-0.89-1.54-1.81-1.21-3.81c-1.89-1.46-2.58,2.37-2,4.01   C79.6,52.27,80.8,53.16,81.79,52.59 M137.98,53.99c0.16,0.91,1.09,1.06,1.41,1.81c2.88,0.05,5.84,1.97,8.63,0.8v-1   c-0.52-0.88-2.06-0.75-2.4-1.81c-0.11-1.29,0.23-3.04-0.2-4.01c-1.94-0.9-2.24,1.47-2,3.41C141.48,53.35,138.75,52.68,137.98,53.99    M156.85,55.6c0.36-0.38,0.15-1.33,0.21-2.01c-0.57-0.44-1.26-0.75-1.81-1.2c-0.55-0.79,0.23-2-0.19-2.61   c-3.53-1.55-4.24,3.26-3.42,5.42C152.97,55.63,155.2,56.15,156.85,55.6 M168.29,50.78c-1.14,0-1.19,1.09-2.01,1.4   c0.47,0.6,0.6,1.54,0.8,2.41h1C168.74,53.99,168.59,51.68,168.29,50.78 M63.92,64.83c0.63,0.64,1.61,0.93,2.41,1.4   c0.37,1.57,0.37,2.25,0,3.81c0.53,0,0.44,0.64,1,0.6c1.91-0.43,1-3.69,2.41-4.62c2.52-0.2,5.64,0.3,6.82,0.2   c0.16,0.89-0.17,1.51-0.66,1.99l4.27-2.99c-2.85,0.24-4.35-0.87-7.23-0.6c-1.07-0.86-3.73-0.77-4.81,0   c-0.95-0.59-2.23-0.85-3.22-1.4c-1.19-1.66,0.1-3.39-0.2-5.02c-1.1-0.26-2.1,0-3.01,0.4c-0.05,1.22,0.95,3.05,1,4.82   c-1.43,0.37-3.42,0.2-3.61,1.81C60.55,65.7,62.92,65.47,63.92,64.83 M75.9,68.23c-0.53,0.51-1.23,0.86-1.75,1.22L75.9,68.23    M164.28,56.2c-0.22-0.96-2.61-0.66-3.42-0.4v1C161.69,57.03,164.31,57.48,164.28,56.2 M186.76,61.62   c-1.36-0.58-1.51-2.38-2.81-3.01c-1.24-0.1-0.97,1.3-2.21,1.2c0.01-0.88,0.12-1.86-0.4-2.21c-0.29-0.31-1.03-0.18-1.61-0.2   c-0.51,2.64-0.95,5.34-2.61,6.82c-0.04,2.1-0.64,3.64-0.8,5.62l3.01,2.41c0.17-1.3,2.47-0.48,3.41-1.01   c-0.32-1.48-2.91-0.7-3.41-2.01c-0.28-2.44-1.4-5.3,1.6-5.62c0.59,0.48,0.17,1.97,0.81,2.41c2.9,0.43,2.12-2.83,3.81-3.61   c0.48,2.52,2.43,3.59,3.21,5.82c0.94,0.21,1.31-0.8,2.01-0.2c-1,1.32,0.3,2.58,0.2,4.01c-0.05,0.8-0.63,1.07-0.6,2.01   c0.97,1.03,2.15,1.87,4.42,1.6c0.04-1.69,1.21-2.27,2.01-3.21c-0.2-2.54-1.85-3.64-3.21-5.02c0.49-2.5-1.32-2.69-1.01-5.02   c-1.11-0.22-0.94-1.73-2-2.01C189.12,60.64,188.69,61.88,186.76,61.62 M150.19,58.05l-1.33,0.56c-0.04,0.02-0.08,0.02-0.12,0.04   c1.33,0.47,2.64,0.97,3.93,1.51v-2.72c-0.83-0.33-1.65-0.64-2.49-0.94v1.55H150.19z M46.46,88.12c1.67-0.3,4.08-0.79,6.23-0.4   c0.77,0.14,1.12,0.71,1.8,0.61c0.58-0.09,1.29-0.66,1.41-1.21c-1.21-0.42-1.58-0.97-3.21-0.6c-0.76-0.61-1.54-1.51-1.6-2.61   c-0.07-1.07,0.71-1.68,0.6-2.81c1.79-0.58,5.68-1,8.03-0.2c0.15-0.58,1.09-0.39,1.01-1.2c-0.38-0.83-1.59-0.83-2.01-1.61   c0.02-1.45,0.33-2.61,0.2-4.21c0.41-0.06,0.39-0.54,0.8-0.6c2.38-0.59,4.07,0.39,5.82-0.61c0.59,0.31,1.25,0.96,1.81,0.2   c0.07-2.34-3.77-1.29-5.82-1c-1.32-0.91-4.76-0.71-6.63-0.4c-0.22,1.46,1.45,1.56,1.81,2.81c0.34,1.19-0.24,2.47,0,4.21   c-1.02,0.89-3.39,0.6-5.62,0.6c-1.56,0-3.45-0.46-4.02,0.6c-0.27,1.07,0.98,0.62,1.2,1.2c0.43,1.16,0.72,1.82,0.6,2.81   C48.64,85.54,46.26,86.08,46.46,88.12 M185.56,78.08c-0.04,0.71,0.68,0.66,0.8,1.2c1.53-1.69,4.18,1.28,5.02-0.8   c-0.26-1-2.19-0.35-2.4-1.4c-0.09-1.79-0.25-3.5-1.61-4.02h-0.4c-0.49,0.84-0.01,1.93-0.2,2.81   C186.53,76.95,185.97,77.36,185.56,78.08 M193.98,81.09c0.04,1.5,0.41,2.67,0.6,4.01c2.38-0.15,1.62,2.77,3.41,2.81   c0.84,0.02,2.92-2.96,3.01-3.61c0.22-1.55-1.01-2.38-1.2-3.62c0.55-0.25,0.36-1.24,1-1.4c1.46,0.01,1.19,1.75,2.61,1.81   c1.17-1.11,2.93-1.62,3.61-3.21c-0.81-0.73-1.04-2.04-1.61-3.01c-3.4,0.86-2.95-2.12-5.82-1.81c-0.86,2.08-1.59,5.3-1.21,7.43   C197.47,80.42,194.72,79.89,193.98,81.09 M203.02,84.71c0.24,1.64,2.32,1.43,3.01,2.61c-0.07,1.2-0.03,2.3,0.6,2.81   c2.19-0.29,1.54-3.41,2.21-5.22C207.66,84.18,204.51,84.45,203.02,84.71 M204.62,101.16c0.18-0.88-0.83-0.95-1.2-1.4   c-1.08-1.27-1.42-2.88-1.2-5.42c0.65-1.62,4.16-0.39,4.81-2.01c-0.45-0.77-2.12-0.81-3.41-0.8c-1.09,0.01-2.62,0.17-3.81,0.2   c-1.2,0.03-3.28-0.44-2.81,1.21c1.06,0.22,2.36-0.03,3.01,1c-0.01,3.15,0.26,5.08,0.2,7.43   C201.31,101.6,203.83,101.87,204.62,101.16 M47.06,96.15c0.19,1.34,0.57,2.51,1.81,2.81c0.52-0.35,0.41-1.33,0.4-2.21   c0.82-0.32,1.27-1,1.6-1.81c-0.45-0.28-1.32-0.15-1.4-0.8c-1.19,0.92-2.24-0.33-4.01,0c-0.31,0.36-0.31,1.64,0,2.01H47.06z    M207.43,131.67c-0.58-0.02-1.23,0.4-1.81,0.4c-1.22,0.01-2.23-0.66-3.41-0.81c0.46-1.82-0.78-3.16-0.61-4.41   c0.14-1,1.1-1.04,1.2-2.21c-0.97-0.63-2.86-0.35-3.81-1c-0.28,0.59-1.04,0.69-0.8,1.81c3.07,0.22,0.99,3.06,1.2,5.42   c-1.51,0.82-3.25,1.42-5.82,1.2c-0.37,1.87,2.01,1.22,3.42,1.4c1.7,0.23,3.55,0.34,4.61-0.6c0.63,0.11,0.53,0.94,1.2,1   c1.04-0.61,3.25-0.6,3.82,0.4c-0.05,2.35,0.38,5.2-1,6.22c-3.66,0.58-6.28-1.32-9.23-0.2c-0.69-0.32-1.54-0.47-2.61-0.4   c-0.06-0.41-0.55-0.39-0.6-0.81c-0.05-0.67,0.16-1.62-0.2-2c-0.33-0.3-1.48-0.3-1.81,0c-0.37,0.43-0.13,1.47-0.2,2.21   c-0.64-0.18-0.42,0.52-0.8,0.6c-3.13-0.34-5.21,0.13-7.43-0.6c-0.85,1.02-3.78-0.04-4.42,1.2v0.4c0.78,0.76,2.65,0.43,3.62,1   c0.17,1.71-0.46,4.21,0.6,5.02c-0.87,0.86-1.89,1.71-3.21,2.01c-0.42,0.09-1.4-0.41-1.6,0.4c1.22,1.99,5.59,0.68,7.63,0.4   c0.98,0.69,2.7,0.64,4.41,0.6c0.85,0.83,0.69,2.65,1.21,3.81c-0.87,1.11-0.91,2.24-2.21,2.61c-2.58,0.73-6.56-1.81-9.04,0   c-0.95-0.19-0.98-0.52-1.8,0c-0.26,2,2.2,1.27,3.82,1.4c1.24,1.48,1.28,6.28-0.61,7.02c-1.08,0.26-3.26-0.58-3.41,0.6   c-0.04,0.77,1.54,1.32,2.41,1.41c1.12,0.11,2.3-0.11,3.01-0.6c0.56,0.18,1,0.48,1.61,0.6c0.57-0.31,0.86-0.88,1.61-1   c1.2,0.6,3.43,0.18,4.01,1.4c0.08,1.66,1.04,2.44,1.4,3.81c1.77-0.57,1.06-3.63,2.21-4.81c3.5-0.27,6.45,1.29,8.83-0.4   c0.09-1.17-1.14-1.01-1.2-2.01c0.16-1.99-0.37-4.66,0.41-6.02c-1.39-1.1-4.3-1.87-6.43-1c-0.81-0.59-1.36-1.45-2.41-1.81   c-0.15-2.09,0.21-3.67,0.8-5.02c1.89,0.28,4.47,0.06,6.22-0.4c1.73,0.69,5.39,0.47,7.43,0.19c-0.71-1.31-3.09-0.75-4.62-1.2   c-0.44-0.13-0.84-0.81-1.2-0.8c-0.04-0.83-0.35-2.77-0.21-4.41c1.88-1.2,4.07-2.09,7.43-1.81c0.7-0.07,0.76,1.03,1.4,0.41   c1.11-1.45-1.12-2.12-1.61-3.22c0.23-1.71-0.62-4.5,0.8-5.02c0.91-0.07,1.81,0.09,2.61,0c1.13-0.12,3.05-0.51,3.41-1.2   c-1.96-0.49-3.6-0.56-5.42-0.6C209.29,132.25,208.31,131.7,207.43,131.67 M193.18,158.17c2-0.18,3.68,0.69,5.62,0.4   c0.33,0.61,0.62,1.25,1.41,1.41c-0.88,0.86-0.56,2.92-0.6,4.61c-0.74,0.58-1.96,0.91-3.02,0.6c-0.39-0.68-0.46-1.67-1-2.2   c-0.46,0.34-0.08,1.53-0.2,2.2c-4.09,0.4-7.9,0.41-10.84-1.2c-0.19-2.13,0.32-3.56,0.6-5.22c1.14,0.29,1.88-0.61,3.01-0.6   c0.74,0.02,1.44,0.57,2.21,0.6C191.34,158.8,192.22,158.25,193.18,158.17 M199.61,148.33c-0.75-0.42-1.14,0.5-1.6,0.6   c-4.14,0.89-8.31-1.18-12.65-0.6c-0.82-0.18-0.88-1.12-1.61-1.4c0.23-2.18,0.52-4.29,1.41-5.82c0.81-0.08,0.92,0.55,1.4,0.8   c0.71-0.02,0.9-0.57,1.6-0.6c2.8,1.22,7.69,0.34,11.44,0.6C199.38,144.67,200.27,146.12,199.61,148.33 M178.53,132.88   c-0.89-1.31,0.61-2.15,1.01-3.02c0.14-0.31-0.13-0.83,0-1.2c0.12-0.35,0.92-0.75,0.8-1.4h1c0.62,0.53,0.28,1.37,0.6,2.21   c0.43,1.1,1.77,1.85,0.6,3.41h-1c-0.53-0.07-0.68-0.53-0.8-1.01C179.76,131.97,179.91,133.19,178.53,132.88 M189.57,132.07   c1,0.08,0.87,1.27,1.81,1.4c-0.38,0.69-0.81,1.34-1.41,1.81c-1.07,0.14-1.14-0.73-2-0.8v-1.6   C188.67,132.78,189.06,132.36,189.57,132.07 M185.76,173.62c1.7,0.19,4.55-0.72,4.61,1.01c-1.67-0.14-3.3,0.43-5.42,0.4   c-0.5,1.43-1.47,2.41-1.61,4.21c-2.42,0.02-0.56-4.26-2.61-4.61c-1.22-0.15-1.7,0.44-2.81,0.4c-0.31-0.36-0.31-1.64,0-2.01   c1.23-0.02,1.93,0.48,3.01,0.6C182.24,172.59,183.79,173.41,185.76,173.62 M178.53,183.46c-0.8-1.89,1.25-1.94,2.41-1.2   C180.5,183.01,179.66,183.38,178.53,183.46 M44.25,131.67c-0.18-0.35-0.45-0.62-0.8-0.8c0.15-1.06,1.2-1.22,2.21-1.4   c1.18-2.58-0.1-5.26,0.2-8.63c1-1.56,2.68,0.01,4.41,0c-0.27,1.13-1.32,1.49-1.8,2.41c-0.13,2.36-1.23,5.93,0.8,7.03   c1.42-0.54,4.36-0.06,6.02,0.4c0.11,0.97-0.8,0.94-1,1.6c-1.58-0.7-3.92-0.69-5.42,0C47.4,131.49,45.97,130.97,44.25,131.67    M43.25,131.27c-0.28-2.23-3.03-1.07-4.62-0.8c-0.16,0.7,0.22,0.85,0.4,1.21C40.89,131.41,42.13,131.72,43.25,131.27 M62.41,131.27   c0.04-0.98-1.45-1.29-2.25-0.8v0.71c-0.12-0.33-0.26-0.65-0.46-0.91c-1.85-0.25-2.66,0.56-2.41,2.41c1.16,0.62,2.59-0.03,3.21-0.6   c-0.08-0.17-0.14-0.36-0.21-0.55C60.89,131.82,62.13,131.72,62.41,131.27 M60.31,176.03c4.1-0.19,3.38-5.31,0.8-6.02   c-1.94-0.53-5.4-0.59-4.42,2.81C57.56,174.23,59.39,174.67,60.31,176.03 M48.26,171.41c0.01,0.48-0.34,0.59-0.2,1.21   c2.6,0.13,5.08,0.89,6.43-0.8C54.24,169.7,50.32,171.25,48.26,171.41 M57.5,188.67c-1.27,0.27-1.42,1.65-2.61,2.01   c0.1,1.17-0.23,2.77,0.2,3.61c0.38,0.4,0.95,0.1,1.41,0c-0.08,0.75,0.16,1.18,0.8,1.21h0.6c0.54-0.2,0.21-1.26,0.6-1.6   c1.09,0.56,1.84-0.78,2.81-1c-0.46-0.68-0.77-1.5-1.01-2.41C59.2,190.06,58.54,189.18,57.5,188.67 M76.37,122.05   c-0.81,0.23-1.49,1.23-1.49,2.23l-0.01,1.09l-0.11-0.12c-0.43-0.71-0.74-1.53-1.2-2.21c-1.86,0.26-2.3-0.91-3.81-1   c-0.89,1.46-2.27,2.41-3.21,3.82c0.25,1.48,1.9,1.58,3.41,1.8c0.49,0.55-0.22,1.12,0,2.01c-1.71,0.97-2.67,2.68-4.21,3.81   c0.35,1.12,1.47,1.48,1.2,3.21c-2.96,1.24-5.74,1.82-10.04,1.4c-0.3-0.71-1.05-1.62-1-2.61c0.03-0.76,0.48-1.03,0.6-1.81   c-0.33-0.47-1.17-0.43-2.01-0.4c-0.38,1.17-0.87,2.42-0.2,3.61c-1.05,0.5-1.51,1.57-2.81,1.81c-2.1-0.9-5.04-0.24-7.62-0.6   c-0.45-0.06-1.08-0.53-1.61-0.6c-1.9-0.26-2.64-0.05-3.21-1.21c-0.06-0.74,0.17-1.78-0.2-2.21c-0.33-0.33-1.18-0.16-1.81-0.2   c-0.46,1.08-0.74,2.34-1,3.61c-1.75-0.08-3.1,0.24-3.81,1.2c1.63,0.31,3.01,1.24,4.42,0.2c0.46,0.27,0.89,0.57,1.6,0.6   c1.9-0.62,4.19,0.23,6.42,0c0.67,2.19,1.53,6.26-1,7.03c-1.07,0.32-2.44-0.4-3.81,0.2c0.47,2.28,5.6,1.12,6.82,0.4   c0.79-1.18,0.62-3.45,0.81-5.22c0.08-0.78,0.67-1.43,0.4-1.8c2.21,0.12,2.75-0.98,4.42,0c2.13-1.14,6.17-0.38,9.23-0.6   c0.53,0.47,1.32,0.69,1.8,1.21c0.12,1.88,1.89,2.12,2.41,3.61c-0.42,0.58-0.8,1.2-1.2,1.81c0.1,1.17-0.06,2.08-0.4,2.81   c0.61,0.93,1.62,1.46,2.21,2.41c-0.92-0.19-0.38,1.09-0.8,1.4c-0.92,0.28-2.1,0.91-3.21,0.4c-1.67,0.7-0.06,4.44-1.2,5.42   c-0.73-0.61-0.56-2.11-1.2-2.81c0.16-1.3-0.33-1.95-0.81-2.61h-3.21c-0.26-1.48-0.26-3.13,0-4.62c0.91,0.21,0.89-0.48,1.6-0.6   c1.78-0.3,4.16,1.78,4.41-0.8c-1.02-1.17-3.22-0.45-5.02-0.6c-1.16-0.11-1.81-0.09-2.81,0c-1.81,0.15-4.47-0.58-5.22,0.6v0.4   c1.59,0.83,3.67,1.14,4.82,2.41v2.01c1.16,1.08,0.8,3.18,1.2,5.02c0.21,0.95,1.12,1.66,0.8,2.41c1.74,0.12,2.99,0.24,4.01,1.4   c0.72,3.4-2.08,2.2-4.01,2.21c-0.54,0-1.04,0.34-1.6,0.4c-2.36,0.26-5.74-0.63-6.02-1.41v-5.62c1.84-0.3,5.08,0.8,5.42-1   c-1.34-1.22-4.06-0.77-6.22-0.8c-1.49-0.02-3.24-0.14-3.81,1c0.15,0.99,1.48,0.79,1.81,1.6v5.62h-1.4   c-0.33,0.94-2.57-0.02-2.41,1.4c0.37,1.24,1.07-0.07,1.81,0c0.63,0.06,0.76,0.72,1.6,0.61c2.07-1.49,4.67,0.33,7.43,0   c0.89,0.98,1.18,2.56,1.4,4.22c0.97,0.1,0.94-0.8,1.6-1.01c-1.59-2.33,1.69-3.72,4.81-3.21c1.32,0.89,1.84,2.58,2.81,3.81   c1.23-0.58,1.82-2.86,4.01-1.81c-2.03,0.52-2.68,3.45-2.21,5.82c1.25,0.16,1.56-0.44,1.2-1.4c0.98-0.3,0.58-1.97,1.6-2.21   c1.59,0.44,1.57-0.71,2.41-1.01c0.31,0.29,0.94,0.27,1.2,0.6c0.1,0.97-0.92,0.82-0.6,2.01c0.35,0.18,0.62,0.45,0.8,0.8   c1.18-0.4,2.14-0.84,3.16-1.53l0.01-0.5l0.02-2.34c-0.22-0.07-0.46-0.12-0.77-0.04c-1.16,0.04-0.74,1.67-2.21,1.4   c0.27-1.9,2.05-4.1,0.8-6.22c-2.36-0.14-3.86-0.29-5.21,0.8c-0.15,0.62,0.55,0.39,0.4,1.01c-2.25-0.43-2.27-3.09-4.41-3.61   c0.07-0.74-0.17-1.78,0.2-2.21c1.14,0.63,1.6,0.04,2.61-0.4c0.18,0.7,0.42,1.32,1,1.6c1.07-0.07,1.3-0.97,2.21-1.2   c1.03,0.3,2.39,1.29,3.41,0.4c-0.67-1.77,1.02-2.66,1.41-4.01c-0.2-0.8-0.67-1.34-1.01-2.01c-1.83-0.49-2.11,0.53-3.41,1   c-0.98-1.91,1.62-3.38,0.8-6.42c-1.48-0.8-2.39-2.16-3.02-3.82c1.31-1.97,2.48-4.08,2.61-7.22c2.36-0.61,3.82-2.7,1.62-4.81   c0.23-0.2,0.4-0.47,0.47-0.81c-0.05-0.04-0.1-0.08-0.16-0.13c0.22-0.43,0.45-0.85,0.28-1.67c0.85-0.62,1.81-1.48,2.7-1.36   l0.01-1.58l-0.08,10.36c-0.27-0.14-0.51-0.3-0.81-0.4c-1.26,0.41-2.15,1.19-3.01,2c0.66,0.87,0.42,2.68,0,3.61   c0.56,1.94,1.24,5.37,0.6,7.23c0.21,0.65,0.69,1.05,0.8,1.81c0.68,0.06,1.74-0.27,1.6,0.6c0.34-0.01,0.53-0.16,0.69-0.35   l-0.13,16.44l-0.02,2.34l-0.08,9.33c-0.24-0.13-0.51-0.23-0.85-0.26c-1.55,1.26-4.12,1.5-3.61,4.82c2.08-0.24,3.17,1.61,1.6,2.81   c-1.6-1.22-4.77-2.44-3.01-5.22c-0.34-0.73-1.28-0.86-1.81-1.4c0.53-0.56,0.49-1.03,0.27-1.52c0.04,0.04,0.06,0.09,0.11,0.12   c1.56-0.85,4.81-0.01,5.62-1.6c-0.11-1.23,0.23-2.9-0.2-3.81c-1.5-0.27-3.61,0.18-5.42-0.2c-0.28,1.4-0.92,3.08-0.71,4.36   c-0.02-0.05-0.05-0.1-0.07-0.15c-2-0.32-1.69,0.44-2.61,1.4c-1.07,1.12-2.39,1.78-2.41,3.41c-0.98-0.76-1.22-2.26-2.21-3.01   c-0.6,0.47-1.54,0.61-2.41,0.8c-0.52,1.12,0.19,2.22,0,3.61c0.62,0.69,1.88,0.99,3.01,0.6c1.08,0.59,2.53,0.82,3.61,1.41   c0.54,2.41-1.22,2.52-1.2,4.41c0.84,0.6,1.79-0.13,2.61-0.19c1.06,1.18,2.83,0.56,4.61,0.4c0.69-0.52,0.45-1.96,1.2-2.41   c1.09-0.08,0.32,1.69,0.8,2.21c1.68,1.13-0.01,5.62,2.21,6.23c0.43-0.12,0.49-0.6,0.72-0.91l-0.01,1.54   c-0.01,0.99,0.67,1.81,1.52,1.81c0.84,0,1.54-0.81,1.54-1.81l0.49-72.69C77.84,122.44,77.19,121.82,76.37,122.05 M137.95,76.67   c35.3,12.05,37.63,38.26,37.65,38.52l-1.25,77.05c-0.01,0.69-0.57,1.23-1.26,1.23h-0.02c-0.69-0.01-1.24-0.58-1.23-1.28l1.25-76.94   c-0.02-0.13-2.3-24.73-35.95-36.22c-0.66-0.22-1.01-0.93-0.78-1.59C136.59,76.79,137.3,76.44,137.95,76.67 M76.64,103.21   c-0.32,0.62-0.07,1.37,0.55,1.69c0.18,0.09,0.38,0.13,0.57,0.13c0.45,0,0.89-0.25,1.12-0.68C91.35,80,120.41,77.67,120.7,77.64   c0.69-0.05,1.21-0.65,1.16-1.34c-0.05-0.69-0.66-1.21-1.34-1.16C120.22,75.16,89.77,77.58,76.64,103.21 M119.11,73.03   c0.69-0.09,1.17-0.72,1.08-1.41s-0.72-1.17-1.41-1.08c-39.02,5.27-49.64,38.17-49.75,38.51c-0.2,0.66,0.17,1.36,0.83,1.57   c0.12,0.04,0.24,0.05,0.37,0.05c0.54,0,1.03-0.35,1.2-0.88C71.52,109.48,81.65,78.1,119.11,73.03 M178.07,111.25   c0.66-0.21,1.03-0.92,0.82-1.57c-9.73-30.66-40.36-37.37-40.66-37.44c-0.68-0.15-1.34,0.29-1.49,0.97   c-0.14,0.68,0.3,1.34,0.97,1.49c0.3,0.06,29.51,6.5,38.79,35.74c0.17,0.53,0.67,0.88,1.2,0.88   C177.82,111.31,177.95,111.29,178.07,111.25 M133.58,70.96c-0.62-0.21-3.55-0.21-3.55-0.21l-2.3,0.83l-1.88-0.42l-0.63-1.25   l-3.76,1.46c0,0,2.09,2.93,2.92,3.14l0.84,0.21c0,0-0.21,1.46-0.21,2.09s1.26,1.25,1.47,0.63c0.21-0.63,0.83-3.14,0.83-3.14   s0-0.63,1.25-0.63c1.26,0,3.56-0.63,3.77,1.46s0.42,2.3,1.04,2.09c0.63-0.21,1.68,0.84,2.09,0c0.42-0.84,0-1.46,0-2.51   C135.46,73.67,134.2,71.16,133.58,70.96 M129.82,78.06c0,0,1.04,0.42,1.67,0.63s-0.21-2.3-1.88-2.72c0,0-1.67-0.42-1.88,0.21   C127.52,76.81,129.82,78.06,129.82,78.06 M169.99,113c-0.28,0.38-0.72,0.61-1.19,0.61h-90c-0.47,0-0.92-0.23-1.19-0.61   c-0.27-0.39-0.35-0.88-0.19-1.33c6.62-19.23,25.26-32.14,46.38-32.14c0.94,0,1.86,0.06,2.78,0.11l1.36-1.36l1.8,1.63   c18.62,2.16,34.46,14.37,40.46,31.76C170.34,112.12,170.26,112.61,169.99,113 M114.97,84.34c0,0-0.02,2.61-0.06,6.15   c0.39-0.24,0.87-0.58,1.1-0.93c0.42-0.63,4.18-2.72,4.18-2.72v1.05c0,1.04,0.63,1.04,1.46,1.25c0.84,0.21,0.21,2.09,0.21,2.09   l-1.05,0.84c-1.04,0.83-0.21,1.88-0.21,1.88l2.51-1.46l0.84-2.3l0.84-2.72c-0.84,0.21-1.88-2.93-1.88-2.93   c1.75-0.52,2.32-2.79,2.46-3.52c-0.52-0.02-1.05-0.03-1.58-0.03c-2.6,0-5.15,0.2-7.64,0.59C115.32,82.75,114.97,84.34,114.97,84.34    M93.64,96.05c0-1.91-0.89-2.92-1.51-3.4c-6.06,5.22-10.73,11.91-13.34,19.5h14.09c0.75-0.92,0.76-2.51,0.76-2.51   S93.64,96.05,93.64,96.05z M111.62,109.64c0,0,0.21-23.42,0.21-25.09c0-0.91-0.62-1.44-1.19-1.74c-4.66,1.29-9.03,3.24-12.98,5.75   c-0.62,1.31-0.88,2.47-0.88,2.47v18.61c0,1.26,0.47,2.04,0.94,2.51h13.22C111.51,111.23,111.62,109.64,111.62,109.64    M132.74,109.43c0,0,0.21-23.21,0.21-25.09c0-1.17-0.49-2.1-0.85-2.63c-0.58-0.1-1.15-0.18-1.73-0.26   c0.02,0.17,0.04,0.36,0.07,0.59c0.21,1.67-1.04,2.93-1.67,4.18s-1.25,0.42-2.09,0.83c-0.84,0.42-0.21,1.67,0.21,2.72   s1.26,1.05,1.26,1.05s0.63,0.84,0.84,1.67c0.21,0.84,0.42,1.88,0.42,1.88s-1.05,1.67-1.26,2.3c-0.21,0.63-0.84,1.26-1.46,1.67   c-0.63,0.42-2.93-3.56-2.93-3.56s-1.67-0.63-3.14,0.84c-1.46,1.47,0,3.76,0,3.76l0.42-0.84c0.42-0.84,1.25-0.84,2.09-0.42   s0,1.46-1.05,2.51c-1.04,1.05-2.92,4.6-2.92,4.6s-0.21-0.84-0.84-2.09s-1.88-3.97-1.04-5.02c0.83-1.05,1.88-1.67,1.88-2.72   s-1.67-1.67-2.3-1.88c-0.36-0.12-1.25-0.57-1.96-0.94c-0.06,6.82-0.13,15.58-0.13,16.83c0,1.22,1.07,2.15,1.96,2.72h15.1   C132.47,111.29,132.74,109.43,132.74,109.43 M151.77,94.79c0-1.96-0.37-4.18-0.62-5.45c-4.33-2.95-9.22-5.2-14.47-6.62   c-0.47,0.78-0.59,2.24-0.59,2.24v24.67c0,1.02,0.36,1.9,0.7,2.51h13.77c0.71-0.72,1.22-2.09,1.22-2.09V94.79H151.77z    M154.49,110.26c0,0.83,0.36,1.44,0.78,1.88h13.54c-2.64-7.65-7.35-14.38-13.49-19.62c-0.44,0.74-0.83,2.06-0.83,2.06   L154.49,110.26 M110.16,96.46c-2.09-0.84-1.67,0.84-2.09-0.84c-0.42-1.67-1.47-2.09-1.47-2.09c-0.63,0.63-1.25,2.51-2.51,3.14   c-1.25,0.63-1.25,1.26-1.05,1.88c0.21,0.63,0.42,2.51,0.42,2.51s2.51-0.84,3.77-1.26c1.25-0.42,1.88-0.84,2.51-1.46   S112.25,97.3,110.16,96.46 M75.66,120.51c0.21,0.63,1.88-1.67,2.72-2.09c0.84-0.42,1.26-1.25,0.84-2.09   c-0.42-0.84-2.09-0.63-2.3-1.67c-0.21-1.05-0.21-2.3-0.21-2.3s0.21-1.05,0.42-2.72s0.42-2.09-0.21-2.51   c-0.63-0.42-0.63-1.05-3.14-0.63c-1.23,0.21-0.21,2.09-0.21,3.76s-0.42,1.88,0.21,2.93s2.72,1.88,1.05,2.72   c-1.67,0.84-2.09,1.26-2.09,2.09C72.74,118.83,75.45,119.88,75.66,120.51 M127.93,51.93c0.83-0.63,1.88,0.42,1.88,0.42   c-1.03,0.44-0.72,2.32-0.44,3.4c-1.09-0.08-2.17-0.19-3.27-0.21h-0.03c-0.3,0.05-0.58,0.07-0.84,0.07c-0.35,0-0.65-0.04-0.94-0.11   c-0.08,0-0.15-0.01-0.23-0.01c-33.07,0-62.38,22.09-71.28,53.72c-0.07,0.25-0.02,0.52,0.14,0.73c0.15,0.21,0.4,0.33,0.66,0.33   h13.13c0.35,0,0.67-0.22,0.79-0.56c8.31-23.98,31.03-40.1,56.56-40.1c25.52,0,48.48,16.57,56.79,40.56   c0.12,0.34,0.44,0.56,0.79,0.56h13.13c0.26,0,0.5-0.12,0.66-0.33s0.21-0.48,0.14-0.73c-5.37-19.07-18.4-35.12-34.96-44.5   c-0.21,0.03-0.41,0.06-0.63,0.06l-0.41-0.01c-0.52,0-1.59-0.14-2.26-1.23c-1.43-0.2-2.38-0.86-3.1-1.36   c-0.17-0.12-0.33-0.24-0.51-0.34l-1.03-0.63v-0.38c-1.92-0.81-3.89-1.53-5.88-2.18c-0.25,0.02-0.48,0.07-0.74,0.07   c-1.39,0-2.67-0.33-3.92-0.66c-1-0.26-1.95-0.51-2.78-0.52l-1.41-0.03l-0.48-1.13c-0.03-0.03-0.07-0.06-0.11-0.09   c-0.01-0.01-0.02-0.02-0.02-0.02c-0.76-0.14-1.54-0.22-2.3-0.33c0.43-0.17,0.85-0.43,1.21-0.93c0.78-1.09,0.05-0.79,0.05-1.63   c0-0.83-0.62-1.67-0.62-2.72c0-1.05-2.1,0.21-2.1,0.21s-0.41-1.26-0.62-2.3c-0.21-1.05-1.26,1.26-1.26,1.26   C129.19,48.79,127.93,51.93,127.93,51.93 M187.79,98.38l0.3-0.13c0.1-0.04,0.21-0.04,0.32,0c0.1,0.04,0.19,0.12,0.23,0.22l2.9,6.77   c0.09,0.21-0.01,0.46-0.22,0.55l-2.36,1.01c-0.1,0.04-0.22,0.05-0.32,0c-0.1-0.04-0.19-0.12-0.23-0.22l-0.13-0.31   c-0.09-0.2-0.01-0.43,0.19-0.53c0.5-0.27,0.81-0.6,0.94-0.99c0.12-0.4,0.06-0.89-0.18-1.47l-0.68-1.59l-1.71,3.75   c-0.05,0.1-0.12,0.17-0.22,0.21l-0.19,0.08c-0.1,0.04-0.22,0.04-0.33,0l-3.73-1.57l1.24,2.89c0.14,0.34,0.28,0.47,0.33,0.49   c0.22,0.01,0.4-0.01,0.73-0.12c0.21-0.07,0.43,0.03,0.52,0.23l0.14,0.31c0.04,0.1,0.04,0.22,0.01,0.32   c-0.04,0.1-0.12,0.19-0.23,0.23l-2.38,1.02c-0.05,0.02-0.11,0.04-0.16,0.04s-0.1-0.01-0.16-0.03c-0.1-0.04-0.18-0.12-0.23-0.22   l-2.99-6.97c-0.04-0.1-0.04-0.22,0-0.32s0.12-0.18,0.22-0.23l0.36-0.15c0.11-0.05,0.22-0.05,0.33,0l5.12,2.16l2.37-5.19   C187.61,98.5,187.69,98.42,187.79,98.38 M177.9,88.37c1.06-0.68,2.21-0.83,3.38-0.43c1.14,0.39,2.13,1.23,2.95,2.51   c0.82,1.28,1.17,2.53,1.05,3.73c-0.13,1.23-0.73,2.2-1.81,2.89c-0.9,0.58-1.85,0.77-2.83,0.58c-0.87-0.17-1.69-0.63-2.45-1.37   l-0.07,0.04l0.71,1.12c0.29,0.44,0.45,0.49,0.46,0.49c0.12-0.01,0.32-0.03,0.69-0.23c0.19-0.11,0.43-0.04,0.55,0.14l0.18,0.27   c0.06,0.1,0.08,0.21,0.06,0.32s-0.09,0.2-0.18,0.26l-2.1,1.35c-0.07,0.04-0.15,0.06-0.23,0.06c-0.03,0-0.05,0-0.09-0.01   c-0.11-0.02-0.2-0.09-0.27-0.18l-2.08-3.25c-0.13-0.2-0.07-0.46,0.13-0.58l2.16-1.38c0.16-0.1,0.39-0.08,0.52,0.07   c0.45,0.47,0.97,0.71,1.58,0.75l0.17,0.01c0.57,0,1.15-0.19,1.74-0.56c0.75-0.48,1.2-1.05,1.38-1.74c0.17-0.68,0.04-1.34-0.41-2.04   c-0.44-0.69-0.99-1.09-1.68-1.22c-0.7-0.13-1.41,0.05-2.17,0.53c-0.65,0.42-1.08,0.91-1.31,1.5c-0.22,0.57-0.21,1.15,0.03,1.76   c0.07,0.18,0,0.4-0.16,0.51l-2.16,1.38c-0.19,0.13-0.45,0.07-0.58-0.13L173,92.25c-0.06-0.09-0.09-0.21-0.06-0.31   c0.02-0.11,0.09-0.21,0.18-0.26l2.11-1.35c0.09-0.06,0.21-0.08,0.31-0.05c0.11,0.02,0.2,0.09,0.26,0.18l0.18,0.27   c0.11,0.19,0.07,0.43-0.11,0.57c-0.41,0.3-0.48,0.47-0.49,0.52c-0.01,0.02-0.03,0.18,0.25,0.63l0.72,1.12l0.07-0.04   c-0.36-1.01-0.43-1.95-0.23-2.81C176.42,89.73,176.99,88.95,177.9,88.37 M166.31,84.05l0.2-0.2c0.16-0.15,0.43-0.15,0.58,0.01   c0.44,0.45,0.65,0.5,0.71,0.5h0.01c0.05,0,0.16-0.02,0.33-0.14c-0.72-0.96-1.14-1.9-1.25-2.81c-0.13-1.06,0.19-1.95,0.93-2.65   c0.77-0.73,1.68-1.02,2.74-0.83c0.89,0.16,1.79,0.64,2.69,1.45c0.14-0.18,0.15-0.26,0.15-0.27c0-0.03-0.02-0.23-0.49-0.74   c-0.16-0.17-0.15-0.43,0.02-0.59l0.21-0.19c0.17-0.16,0.44-0.15,0.59,0.02l2.94,3.11c0.16,0.17,0.15,0.43-0.02,0.59l-0.21,0.19   c-0.16,0.15-0.42,0.15-0.58-0.01c-0.48-0.49-0.67-0.52-0.7-0.52c0.01,0-0.12,0.01-0.29,0.12c0.76,0.94,1.19,1.87,1.3,2.76   c0.12,1.05-0.21,1.96-0.98,2.69c-0.74,0.69-1.64,0.96-2.7,0.78c-0.89-0.15-1.81-0.62-2.73-1.4c-0.15,0.19-0.16,0.29-0.16,0.33   c0,0.05,0.05,0.27,0.46,0.72c0.15,0.17,0.14,0.43-0.02,0.58l-0.21,0.19c-0.08,0.07-0.18,0.12-0.29,0.12h-0.01   c-0.11,0-0.22-0.05-0.29-0.13l-2.94-3.11C166.13,84.47,166.14,84.21,166.31,84.05 M152.16,68.46c0.78-1.38,1.82-2.28,3.08-2.68   c1.27-0.4,2.58-0.23,3.86,0.49s2.09,1.75,2.41,3.05c0.32,1.29,0.08,2.64-0.7,4.02c-0.77,1.37-1.81,2.27-3.08,2.67   c-0.46,0.15-0.92,0.22-1.39,0.22c-0.82,0-1.65-0.23-2.46-0.69c-1.28-0.72-2.1-1.75-2.42-3.06   C151.14,71.19,151.38,69.84,152.16,68.46 M141.69,69.45c0.07-0.22,0.3-0.35,0.52-0.27c0.37,0.11,0.58,0.14,0.7,0.14   c0.14-0.02,0.31-0.12,0.54-0.81l2.08-6.36c-0.02-0.01-0.08-0.04-0.2-0.08c-0.85-0.27-1.48-0.3-1.62-0.24   c-0.14,0.06-0.44,0.27-0.79,1.04c-0.09,0.19-0.3,0.29-0.51,0.22l-0.31-0.1c-0.1-0.04-0.2-0.11-0.25-0.21s-0.05-0.22-0.02-0.32   l0.82-2.28c0.08-0.21,0.3-0.33,0.52-0.26l7.87,2.57c0.11,0.04,0.19,0.11,0.24,0.21s0.06,0.21,0.02,0.32l-0.75,2.3   c-0.03,0.1-0.11,0.19-0.21,0.24c-0.1,0.05-0.22,0.06-0.32,0.02l-0.34-0.11c-0.21-0.07-0.32-0.28-0.28-0.49   c0.17-0.82,0.08-1.16,0-1.29c-0.04-0.08-0.29-0.37-1.51-0.77c-0.06-0.02-0.11-0.04-0.15-0.05l-2.08,6.32   c-0.24,0.75-0.17,0.92-0.17,0.92c0.01,0.01,0.13,0.18,0.76,0.4c0.22,0.08,0.33,0.31,0.26,0.52l-0.09,0.27   c-0.04,0.11-0.11,0.19-0.21,0.24c-0.06,0.03-0.12,0.05-0.19,0.05c-0.04,0-0.09-0.01-0.13-0.02l-4.05-1.33   c-0.22-0.07-0.33-0.31-0.26-0.53L141.69,69.45z M70.38,99.52l-1.67,3.38c-0.1,0.21-0.35,0.29-0.56,0.19l-0.26-0.13   c-0.2-0.1-0.29-0.33-0.2-0.54c0.21-0.48,0.21-0.62,0.21-0.64c-0.12-0.02-0.89-0.18-5.05-0.42l-0.61-0.04l3.19,3.67   c0.12,0.15,0.23,0.26,0.34,0.36c0.13,0.12,0.18,0.15,0.18,0.15c0.09,0.03,0.21-0.04,0.44-0.47c0.11-0.19,0.35-0.27,0.55-0.17   L67.2,105c0.21,0.11,0.29,0.35,0.19,0.56L66.18,108c-0.07,0.15-0.22,0.23-0.38,0.23c-0.06,0-0.13-0.01-0.18-0.04l-0.26-0.13   c-0.2-0.1-0.29-0.34-0.2-0.54c0.05-0.12,0.06-0.23,0.02-0.34c-0.03-0.08-0.15-0.32-0.68-0.92l-5.63-6.45   c-0.11-0.13-0.13-0.31-0.06-0.46l0.15-0.3c0.07-0.15,0.23-0.25,0.4-0.23l8.23,0.58c0.76,0.05,1.23,0.01,1.37-0.04   c0.18-0.05,0.31-0.16,0.4-0.34c0.1-0.21,0.36-0.29,0.56-0.19l0.25,0.13c0.1,0.05,0.18,0.14,0.21,0.24   C70.44,99.3,70.43,99.42,70.38,99.52 M77.37,89.48l-2.27,3.17c-0.13,0.19-0.4,0.23-0.59,0.1l-0.23-0.16   c-0.18-0.13-0.23-0.39-0.1-0.58c0.27-0.4,0.29-0.53,0.29-0.54l-0.21-0.15l-1.74-0.39l-1.94,2.71l0.7,1.17   c0.1,0.16,0.19,0.29,0.25,0.38l0.15,0.14c0.05-0.02,0.18-0.09,0.38-0.37c0.13-0.19,0.48-0.34,0.66-0.21l0.23,0.17   c0.09,0.06,0.15,0.16,0.17,0.27c0.02,0.11-0.01,0.22-0.07,0.31L71.26,98c-0.08,0.11-0.21,0.18-0.34,0.18   c-0.09,0-0.17-0.03-0.25-0.08l-0.22-0.16c-0.19-0.13-0.23-0.39-0.1-0.58c0.12-0.17,0.16-0.32,0.15-0.48   c-0.01-0.11-0.07-0.37-0.37-0.89l-4.35-7.76c-0.08-0.14-0.07-0.32,0.03-0.45l0.22-0.31c0.1-0.13,0.26-0.21,0.42-0.17l8.8,1.83   c0.4,0.09,0.72,0.08,0.81,0.06c0.13-0.03,0.24-0.12,0.35-0.27c0.13-0.19,0.44-0.3,0.63-0.16l0.22,0.16   c0.09,0.07,0.15,0.16,0.17,0.27C77.46,89.28,77.43,89.4,77.37,89.48 M87.23,79.83l-2.92,2.74c-0.17,0.16-0.43,0.15-0.59-0.02   l-0.19-0.21c-0.15-0.16-0.15-0.41,0-0.58c0.43-0.46,0.44-0.63,0.44-0.64c0,0-0.01-0.19-0.46-0.67l-2.78-2.95l2.13,6.09   c0.06,0.16,0.02,0.33-0.11,0.44l-0.23,0.21c-0.12,0.12-0.29,0.15-0.44,0.08l-5.98-2.49l2.68,2.84c0.6,0.63,0.78,0.61,0.77,0.61   c0.04,0,0.23-0.02,0.64-0.39c0.17-0.15,0.43-0.14,0.58,0.02l0.19,0.21c0.16,0.16,0.15,0.43-0.02,0.59l-2.35,2.21   c-0.08,0.07-0.18,0.12-0.29,0.12h-0.01c-0.11,0-0.22-0.05-0.29-0.13l-0.19-0.21c-0.16-0.16-0.15-0.43,0.02-0.59   c0.24-0.23,0.37-0.44,0.36-0.58c-0.01-0.06-0.06-0.32-0.59-0.87l-3.93-4.18C73.2,81,73.01,80.96,73,80.96s-0.19,0.01-0.66,0.38   c-0.17,0.13-0.41,0.11-0.57-0.04l-0.19-0.21c-0.16-0.17-0.15-0.43,0.02-0.59l2-1.88c0.12-0.11,0.3-0.15,0.45-0.08l6.36,2.63   l-2.27-6.48c-0.05-0.16-0.01-0.33,0.11-0.44l1.98-1.86c0.08-0.08,0.18-0.1,0.3-0.12c0.11,0.01,0.22,0.05,0.29,0.13l0.19,0.21   c0.15,0.16,0.15,0.42-0.01,0.58c-0.42,0.42-0.45,0.6-0.45,0.62c0,0,0.01,0.19,0.48,0.68l4.15,4.41c0.44,0.47,0.61,0.49,0.62,0.5   c0,0,0.19-0.01,0.69-0.41c0.17-0.14,0.41-0.12,0.57,0.04l0.19,0.21C87.41,79.41,87.4,79.67,87.23,79.83 M95.5,74.74l-3.71,2.18   c-0.07,0.04-0.14,0.06-0.21,0.06c-0.14,0-0.29-0.07-0.36-0.21l-0.15-0.25c-0.11-0.19-0.05-0.45,0.14-0.57   c0.58-0.36,0.66-0.55,0.66-0.57c0.01-0.01,0.05-0.17-0.24-0.66l-0.51-0.87c-1.05,0.51-1.99,0.72-2.79,0.6   c-0.93-0.13-1.69-0.68-2.25-1.64l-0.79-1.35c-0.41-0.69-0.58-0.8-0.6-0.81c-0.08-0.01-0.15,0-0.27,0.07l-0.22,0.13   c-0.09,0.05-0.21,0.07-0.32,0.04s-0.2-0.1-0.26-0.19l-0.17-0.29c-0.1-0.18-0.07-0.4,0.09-0.53c0.09-0.07,0.2-0.15,0.31-0.23   s0.23-0.15,0.36-0.23c0.68-0.4,1.31-0.5,1.85-0.29c0.52,0.19,1.01,0.7,1.5,1.53l0.64,1.09c0.51,0.87,0.9,1.13,1.14,1.2   c0.27,0.07,0.66,0.01,1.14-0.19l-2.03-3.47c-0.27-0.46-0.43-0.5-0.45-0.51c-0.13-0.01-0.36,0.04-0.83,0.29   c-0.19,0.1-0.44,0.03-0.56-0.16l-0.14-0.25c-0.06-0.1-0.08-0.21-0.05-0.32s0.1-0.2,0.19-0.26l3.73-2.18   c0.09-0.05,0.21-0.07,0.31-0.04c0.11,0.02,0.2,0.09,0.26,0.19l0.15,0.24c0.11,0.19,0.05,0.44-0.13,0.56   c-0.55,0.36-0.64,0.55-0.65,0.58c-0.01,0.02-0.05,0.19,0.22,0.64l2.03,3.46c0.5-0.4,0.67-0.7,0.71-0.9   c0.06-0.24,0.02-0.71-0.48-1.57L92.12,68c-0.49-0.84-0.69-1.51-0.61-2.06c0.09-0.57,0.48-1.07,1.16-1.47   c0.13-0.07,0.26-0.14,0.37-0.2c0.12-0.06,0.24-0.11,0.36-0.16c0.19-0.08,0.41,0,0.51,0.18l0.18,0.29c0.05,0.1,0.07,0.21,0.04,0.32   s-0.1,0.2-0.2,0.26l-0.22,0.13c-0.07,0.04-0.19,0.12-0.19,0.2c0,0.02,0.01,0.22,0.41,0.91l0.8,1.36c0.56,0.95,0.66,1.88,0.32,2.76   c-0.29,0.76-0.93,1.48-1.89,2.14l0.51,0.88c0.27,0.45,0.44,0.5,0.47,0.52c0.13,0,0.36-0.04,0.81-0.28c0.1-0.05,0.22-0.07,0.32-0.03   c0.11,0.03,0.2,0.11,0.25,0.21l0.13,0.25C95.76,74.38,95.69,74.63,95.5,74.74 M109.9,69.17l-3.7,1.2   c-0.22,0.07-0.45-0.05-0.52-0.27l-0.09-0.27c-0.07-0.22,0.04-0.45,0.26-0.52c0.45-0.16,0.54-0.26,0.54-0.26l-0.08-0.24l-1.16-1.35   l-3.17,1.03l-0.13,1.36c-0.02,0.19-0.02,0.35-0.02,0.45l-0.04,0.61l0.1-0.4c0.15,0.01,0.28-0.01,0.5-0.08s0.59,0.01,0.66,0.23   l0.09,0.27c0.07,0.22-0.05,0.46-0.27,0.53l-2.92,0.94c-0.04,0.01-0.09,0.02-0.13,0.02c-0.18,0-0.34-0.11-0.4-0.29l-0.09-0.26   c-0.07-0.22,0.05-0.45,0.26-0.52c0.2-0.07,0.33-0.16,0.41-0.3c0.05-0.09,0.16-0.34,0.23-0.94l1.11-8.83   c0.02-0.16,0.13-0.3,0.29-0.35l0.36-0.12c0.16-0.05,0.33-0.01,0.44,0.12l5.99,6.7c0.33,0.38,0.53,0.49,0.61,0.53   c0.13,0.05,0.27,0.05,0.45-0.01c0.11-0.04,0.26-0.04,0.36,0.01s0.21,0.13,0.25,0.23l0.08,0.26   C110.25,68.87,110.13,69.1,109.9,69.17 M119.36,60.79c-0.07,0.09-0.17,0.14-0.28,0.16L118.73,61c-0.21,0.03-0.41-0.11-0.46-0.32   c-0.19-0.82-0.42-1.09-0.55-1.17c-0.06-0.04-0.61-0.19-1.7-0.05c-0.06,0.01-0.12,0.02-0.15,0.02l0.82,6.6   c0.1,0.78,0.24,0.91,0.24,0.91c0.02,0.01,0.3,0.09,0.86,0.04c0.2-0.03,0.43,0.14,0.46,0.36l0.03,0.28   c0.03,0.23-0.13,0.44-0.36,0.47l-4.23,0.53c-0.02,0-0.04,0-0.05,0c-0.09,0-0.18-0.03-0.25-0.09c-0.09-0.07-0.15-0.17-0.16-0.28   l-0.04-0.28c-0.03-0.22,0.13-0.43,0.36-0.46c0.68-0.1,0.8-0.25,0.81-0.25c0,0,0.12-0.16,0.02-0.88l-0.84-6.65l-0.2,0.03   c-1.16,0.15-1.48,0.38-1.56,0.47c-0.1,0.11-0.28,0.43-0.27,1.28c0,0.21-0.16,0.39-0.36,0.42l-0.32,0.04   c-0.12,0.02-0.22-0.02-0.32-0.09c-0.09-0.07-0.14-0.18-0.15-0.29l-0.23-2.41c-0.02-0.22,0.14-0.43,0.36-0.46l8.21-1.03   c0.23-0.04,0.44,0.13,0.47,0.36l0.3,2.4C119.46,60.59,119.42,60.71,119.36,60.79 M130.29,65.97c0.51,0.02,0.65-0.09,0.66-0.1   c0.04-0.03,0.15-0.18,0.21-0.7c0.02-0.22,0.22-0.42,0.44-0.37l0.32,0.02c0.23,0.01,0.41,0.2,0.4,0.43l-0.1,2.5   c-0.01,0.11-0.05,0.22-0.14,0.29c-0.08,0.07-0.18,0.11-0.29,0.11h-0.02l-3.86-0.17c-0.11-0.01-0.22-0.06-0.29-0.14   s-0.11-0.19-0.11-0.3l0.11-2.56c0.01-0.2,0.16-0.36,0.36-0.39c0.64-0.1,1.14-0.38,1.53-0.86c0.39-0.49,0.61-1.12,0.64-1.88   c0.04-0.89-0.16-1.59-0.62-2.13c-0.45-0.53-1.08-0.81-1.9-0.85c-0.94,0.05-1.5,0.22-1.96,0.67c-0.5,0.5-0.77,1.17-0.81,2.07   c-0.03,0.77,0.13,1.42,0.47,1.93c0.34,0.51,0.81,0.83,1.45,0.99c0.19,0.04,0.33,0.22,0.32,0.43l-0.12,2.56   c-0.01,0.23-0.21,0.38-0.43,0.4l-3.86-0.17c-0.11,0-0.21-0.05-0.29-0.13c-0.07-0.08-0.11-0.19-0.11-0.3l0.11-2.5   c0.01-0.23,0.16-0.41,0.44-0.4l0.33,0.01c0.22,0.01,0.4,0.19,0.4,0.41c0.01,0.52,0.11,0.67,0.14,0.71   c0.01,0.01,0.13,0.13,0.65,0.16l1.33,0.06l0.01-0.08c-1.03-0.29-1.85-0.76-2.43-1.43c-0.66-0.75-0.97-1.67-0.92-2.75   c0.05-1.26,0.59-2.28,1.6-3.01c0.97-0.71,2.22-1.03,3.75-0.97c1.52,0.07,2.75,0.5,3.65,1.29c0.93,0.81,1.38,1.87,1.33,3.14   c-0.05,1.07-0.44,1.96-1.16,2.65c-0.64,0.61-1.49,1.02-2.53,1.22v0.08L130.29,65.97z M102.44,64.32l1.76,2.01L102.11,67   L102.44,64.32z M169.03,83.41c-0.28-0.45-0.41-0.87-0.38-1.28c0.04-0.51,0.32-1.03,0.86-1.53c0.53-0.5,1.07-0.77,1.59-0.77   l0.03-0.42v0.42c0.4,0,0.81,0.15,1.23,0.44L169.03,83.41z M171.83,85.53c-0.39,0-0.8-0.15-1.2-0.44l3.33-3.15   c0.26,0.44,0.39,0.87,0.36,1.27c-0.04,0.52-0.33,1.03-0.87,1.53C172.9,85.27,172.37,85.53,171.83,85.53 M68.48,90.02l2.61,0.57   l-1.28,1.78L68.48,90.02z M154.53,74.36c-0.66-0.37-1.02-0.95-1.09-1.78c-0.07-0.87,0.2-1.86,0.81-2.94   c0.62-1.09,1.32-1.83,2.1-2.22c0.36-0.18,0.72-0.27,1.06-0.27c0.35,0,0.68,0.09,1.02,0.29c0.66,0.37,1.01,0.95,1.08,1.76   c0.07,0.86-0.21,1.85-0.83,2.94c-0.61,1.09-1.32,1.84-2.09,2.23c-0.36,0.18-0.72,0.28-1.05,0.28   C155.2,74.65,154.87,74.55,154.53,74.36"/>
	<path fill="#9D7C2F" d="M17.26,117.07c-0.51,0.43-1.09,0.62-1.76,0.57c-0.66-0.05-1.2-0.33-1.63-0.84   c-0.43-0.5-0.61-1.09-0.56-1.76c0.05-0.67,0.33-1.21,0.83-1.64s1.08-0.61,1.74-0.56c0.67,0.05,1.22,0.33,1.65,0.84   c0.43,0.51,0.63,1.09,0.57,1.74C18.05,116.09,17.77,116.64,17.26,117.07 M20.93,93.88c0.02-0.08,0.07-0.12,0.16-0.13l3.8-0.34   c0.22-0.02,0.33,0.13,0.33,0.25c-0.03,0.17-0.01,0.24,0.08,0.27c0.12,0.03,0.17-0.16,0.27-0.45c0.39-1.3,0.72-2.49,0.89-3.08   c0.16-0.6,0.17-0.76,0.04-0.8c-0.11-0.03-0.15,0.04-0.19,0.17c-0.05,0.2-0.14,0.44-0.26,0.67c-0.18,0.32-0.53,0.73-2.16,0.94   c-2.75,0.35-10.09,1.1-11.09,1.25c-0.42,0.06-0.59,0.12-0.63,0.26c-0.05,0.16,0.1,0.31,0.52,0.64l9.04,6.95   c0.72,0.55,1.19,1.02,1.08,1.8c-0.02,0.13-0.07,0.37-0.11,0.51c-0.04,0.13-0.02,0.21,0.07,0.23c0.13,0.04,0.19-0.05,0.25-0.26   c0.24-0.85,0.43-1.76,0.49-1.94c0.14-0.5,0.38-1.19,0.53-1.72c0.05-0.18,0.04-0.28-0.09-0.32c-0.1-0.03-0.15,0.01-0.2,0.21   l-0.07,0.24c-0.14,0.5-0.39,0.59-0.68,0.51c-0.19-0.05-0.56-0.24-0.92-0.52l-2.07-1.53c-0.09-0.06-0.11-0.1-0.09-0.18L20.93,93.88z    M19.2,96.96c-0.02,0.07-0.07,0.07-0.13,0.03l-3.57-2.62c-0.06-0.04-0.13-0.09-0.12-0.14s0.1-0.04,0.16-0.04l4.41-0.34   c0.05-0.01,0.1,0.02,0.08,0.11L19.2,96.96z M23.88,83.47c1.4,0.66,2.61,1.22,3.22,1.59c0.41,0.27,0.72,0.5,0.63,0.84   c-0.03,0.15-0.08,0.35-0.19,0.58c-0.09,0.18-0.07,0.27,0.01,0.3c0.11,0.05,0.2-0.04,0.3-0.24c0.14-0.31,0.3-0.72,0.46-1.07   c0.15-0.38,0.31-0.72,0.39-0.89c0.18-0.38,0.47-0.9,0.78-1.47c0.32-0.56,0.65-1.17,0.91-1.73c1.3-2.85,0.95-4.95,0.56-5.99   c-0.48-1.27-1.57-2.77-3.5-3.66c-1.82-0.85-3.42-0.71-4.57-0.31c-2.51,0.86-3.69,3.43-4.58,5.36c-0.42,0.92-0.82,1.91-1.04,2.39   c-0.2,0.43-0.69,1.38-1.06,2.19c-0.11,0.23-0.12,0.35-0.02,0.4c0.11,0.05,0.18-0.03,0.26-0.2c0.1-0.22,0.24-0.47,0.32-0.58   c0.34-0.46,0.64-0.47,1.18-0.25c0.5,0.19,0.93,0.39,3.25,1.48L23.88,83.47z M21.83,80.18c-1.21-0.56-2.54-1.18-3.05-1.44   c-0.17-0.08-0.22-0.16-0.22-0.33c0-0.15,0.21-0.74,0.35-1.05c0.55-1.2,1.54-2.87,3.53-3.66c0.93-0.37,2.56-0.6,4.5,0.3   c1.57,0.73,2.82,1.69,3.21,3.06c0.37,1.29,0.2,2.48-0.52,4.05c-0.56,1.22-1.16,1.67-1.54,1.73c-0.22,0.04-0.85-0.21-1.24-0.37   c-0.3-0.12-1.48-0.65-3.1-1.41L21.83,80.18z M32.61,66.5c1.28,0.87,2.38,1.62,2.92,2.09c0.37,0.33,0.63,0.61,0.49,0.93   c-0.05,0.14-0.14,0.33-0.28,0.54c-0.11,0.17-0.11,0.25-0.04,0.3c0.1,0.07,0.2,0,0.33-0.18c0.38-0.56,0.93-1.47,1.11-1.74   c0.14-0.21,0.88-1.22,1.43-2.03c0.13-0.18,0.15-0.31,0.05-0.37c-0.07-0.05-0.15-0.02-0.23,0.09c-0.12,0.17-0.35,0.46-0.52,0.65   c-0.34,0.38-0.7,0.26-1.14,0.02c-0.63-0.33-1.73-1.08-3.03-1.97l-0.19-0.13c-0.09-0.05-0.09-0.12-0.04-0.19l0.85-1.2   c0.07-0.1,0.13-0.18,0.26-0.19c0.33-0.04,1.71-0.04,2.86-0.07c1.6-0.05,2.62-0.14,3.34-0.52c0.44-0.23,0.74-0.53,1.27-1.32   l0.9-1.33c0.11-0.17,0.15-0.29,0.04-0.36c-0.07-0.05-0.15-0.02-0.22,0.09c-0.08,0.11-0.18,0.23-0.31,0.36   c-0.19,0.18-0.67,0.69-2.01,0.92c-1.42,0.24-3.31,0.36-5.71,0.54c-0.19-2.2-0.84-3.28-1.87-3.98c-0.93-0.64-2.02-0.56-2.55-0.35   c-1.03,0.4-1.74,1.29-2.34,2.17c-0.29,0.44-0.97,1.53-1.29,2.01c-0.2,0.3-0.83,1.15-1.34,1.89c-0.14,0.21-0.18,0.33-0.08,0.39   c0.1,0.07,0.18,0,0.29-0.15c0.13-0.2,0.31-0.43,0.41-0.52c0.41-0.4,0.71-0.36,1.2-0.06c0.46,0.27,0.85,0.54,2.97,1.99L32.61,66.5z    M28.15,61.03c-0.11-0.07-0.15-0.14-0.11-0.26c0.05-0.17,0.21-0.43,0.44-0.78c0.56-0.83,2.02-1.76,3.99-0.4   c1.14,0.78,1.51,1.62,1.53,2.25c0.01,0.38-0.05,0.6-0.43,1.16c-0.24,0.35-0.56,0.74-0.86,0.97c-0.11,0.07-0.18,0.06-0.34-0.05   L28.15,61.03z M39.98,51.6c-1.92-1.7-2.27-2.02-2.7-2.35c-0.45-0.36-0.78-0.42-1.09-0.2c-0.16,0.11-0.32,0.26-0.45,0.41   c-0.11,0.13-0.2,0.18-0.31,0.09c-0.07-0.07-0.01-0.19,0.17-0.4c0.42-0.48,1.16-1.25,1.48-1.62c0.28-0.32,0.89-1.1,1.32-1.59   c0.14-0.16,0.26-0.24,0.33-0.18c0.1,0.09,0.06,0.19-0.05,0.32s-0.18,0.24-0.3,0.41c-0.23,0.4-0.11,0.69,0.31,1.11   c0.38,0.38,0.74,0.69,2.66,2.4l2.22,1.97c1.23,1.09,2.22,1.97,2.81,2.4c0.38,0.27,0.68,0.38,1.06,0.04   c0.18-0.16,0.45-0.41,0.62-0.6c0.13-0.14,0.21-0.17,0.28-0.12c0.09,0.08,0.04,0.21-0.09,0.35c-0.74,0.84-1.47,1.61-1.78,1.95   c-0.25,0.29-0.92,1.13-1.36,1.64c-0.15,0.16-0.26,0.22-0.35,0.14c-0.07-0.05-0.06-0.14,0.08-0.29c0.17-0.19,0.28-0.37,0.35-0.5   c0.17-0.3,0.02-0.57-0.31-0.93c-0.48-0.53-1.48-1.42-2.7-2.5L39.98,51.6z M53.34,42.96c0.07-0.05,0.12-0.06,0.21-0.02l3.38,1.77   c0.19,0.09,0.21,0.29,0.14,0.39c-0.12,0.13-0.14,0.2-0.07,0.27c0.08,0.09,0.22-0.05,0.46-0.24c1.03-0.88,1.94-1.7,2.39-2.11   c0.46-0.42,0.55-0.55,0.46-0.65c-0.07-0.09-0.15-0.04-0.25,0.05c-0.15,0.13-0.35,0.29-0.57,0.42c-0.32,0.18-0.84,0.33-2.33-0.38   c-2.5-1.19-9.09-4.54-10.01-4.96c-0.38-0.18-0.56-0.22-0.67-0.12c-0.13,0.11-0.08,0.32,0.1,0.82l3.9,10.76   c0.31,0.86,0.45,1.5-0.05,2.1c-0.09,0.1-0.26,0.27-0.37,0.37c-0.1,0.09-0.13,0.16-0.06,0.24c0.09,0.1,0.19,0.06,0.35-0.09   c0.65-0.59,1.3-1.25,1.44-1.37c0.39-0.35,0.96-0.8,1.36-1.16c0.13-0.13,0.19-0.22,0.1-0.32c-0.07-0.07-0.13-0.07-0.28,0.07   l-0.19,0.17c-0.39,0.35-0.65,0.29-0.85,0.06c-0.13-0.15-0.34-0.51-0.49-0.94l-0.93-2.41c-0.04-0.1-0.04-0.15,0.02-0.2L53.34,42.96z    M50.24,44.63c-0.05,0.04-0.1,0.02-0.13-0.04l-1.61-4.14c-0.03-0.07-0.06-0.15-0.03-0.19c0.04-0.03,0.11,0.02,0.17,0.06l3.9,2.1   c0.04,0.03,0.07,0.07,0,0.13L50.24,44.63z M63.6,37.46c0.74,1.09,1.16,1.34,1.51,1.26c0.3-0.07,0.57-0.23,0.8-0.38   c0.15-0.1,0.26-0.13,0.32-0.04c0.07,0.11-0.04,0.22-0.23,0.35c-0.92,0.6-1.51,0.92-1.78,1.09c-0.13,0.09-0.77,0.56-1.5,1.03   c-0.18,0.12-0.32,0.19-0.4,0.06c-0.06-0.09,0.01-0.17,0.15-0.26c0.18-0.12,0.43-0.3,0.59-0.48c0.29-0.35,0.09-0.8-0.69-2.05   l-5.27-8.52c-0.18-0.29-0.27-0.51-0.13-0.61c0.16-0.1,0.4,0,0.81,0.1c0.29,0.08,3.93,1,7.31,1.73c1.58,0.34,4.81,1.16,5.19,1.23   l0.07-0.04l-4.24-6.31c-0.57-0.86-0.87-1.05-1.3-0.97c-0.27,0.05-0.61,0.27-0.8,0.4c-0.17,0.11-0.26,0.1-0.31,0.02   c-0.07-0.12,0.07-0.23,0.28-0.36c0.74-0.48,1.44-0.88,1.74-1.07c0.16-0.1,0.67-0.49,1.36-0.95c0.18-0.12,0.34-0.2,0.41-0.08   c0.06,0.09,0,0.18-0.17,0.29c-0.14,0.09-0.25,0.16-0.4,0.32c-0.32,0.37-0.25,0.74,0.25,1.55l5.6,9.09c0.2,0.32,0.22,0.48,0.1,0.56   c-0.15,0.1-0.43,0.05-0.68,0c-1.44-0.27-4.45-0.97-6.86-1.48c-2.52-0.54-5.24-1.3-5.66-1.41l-0.05,0.03L63.6,37.46z M76.82,23.35   c-1.07-2.34-1.27-2.77-1.53-3.25c-0.27-0.51-0.54-0.7-0.91-0.62c-0.19,0.04-0.4,0.11-0.58,0.19c-0.15,0.07-0.26,0.09-0.32-0.04   c-0.04-0.09,0.07-0.18,0.31-0.3c0.58-0.27,1.57-0.67,2.01-0.88c0.38-0.18,1.26-0.64,1.84-0.91c0.2-0.1,0.33-0.12,0.38-0.03   c0.06,0.12-0.02,0.19-0.17,0.27c-0.15,0.07-0.27,0.14-0.44,0.26c-0.38,0.27-0.38,0.59-0.16,1.14c0.19,0.51,0.39,0.94,1.47,3.28   l1.25,2.71c0.68,1.49,1.24,2.71,1.6,3.34c0.24,0.4,0.47,0.62,0.96,0.47c0.22-0.07,0.58-0.19,0.81-0.3c0.17-0.08,0.27-0.07,0.3,0.01   c0.05,0.11-0.05,0.21-0.22,0.29c-1.01,0.47-1.99,0.87-2.4,1.06c-0.35,0.16-1.29,0.66-1.9,0.94c-0.2,0.09-0.33,0.1-0.38-0.01   c-0.04-0.08,0.01-0.15,0.19-0.24c0.23-0.11,0.4-0.22,0.52-0.32c0.28-0.21,0.25-0.51,0.09-0.97c-0.22-0.68-0.78-1.9-1.47-3.39   L76.82,23.35z M86.62,19.11c-0.76-2.46-0.9-2.92-1.09-3.42c-0.2-0.54-0.41-0.76-0.97-0.71c-0.14,0.01-0.42,0.08-0.64,0.15   c-0.18,0.05-0.28,0.05-0.32-0.06c-0.04-0.11,0.07-0.18,0.31-0.25c0.85-0.27,1.88-0.54,2.36-0.69c0.38-0.12,1.38-0.49,1.96-0.67   c0.24-0.08,0.36-0.08,0.4,0.03s-0.05,0.18-0.21,0.23c-0.18,0.05-0.27,0.1-0.45,0.19c-0.41,0.22-0.45,0.53-0.31,1.11   c0.13,0.53,0.27,0.98,1.03,3.44l0.7,2.26c0.73,2.35,1.5,3.19,2.49,3.59c0.91,0.37,1.67,0.21,2.21,0.04   c0.71-0.22,1.51-0.72,1.95-1.57c0.61-1.17,0.21-2.64-0.31-4.31l-0.63-2.02c-0.77-2.46-0.9-2.91-1.09-3.42   c-0.2-0.54-0.41-0.76-0.97-0.71c-0.14,0.01-0.42,0.08-0.6,0.13s-0.29,0.05-0.32-0.06c-0.03-0.11,0.07-0.18,0.29-0.25   c0.82-0.26,1.85-0.52,1.87-0.53c0.19-0.06,1.19-0.43,1.82-0.63c0.22-0.07,0.35-0.07,0.38,0.04s-0.05,0.18-0.25,0.24   c-0.17,0.06-0.26,0.1-0.45,0.19c-0.41,0.22-0.46,0.54-0.31,1.11c0.13,0.53,0.27,0.98,1.03,3.44l0.54,1.73   c0.55,1.8,0.97,3.76-0.02,5.35c-0.83,1.34-1.94,1.88-2.98,2.21c-0.85,0.27-2.41,0.7-3.92,0c-1.05-0.49-2.03-1.49-2.76-3.84   L86.62,19.11z M104.69,9.27c0.02-0.29,0.1-0.46,0.23-0.47c0.13-0.02,0.24,0.05,0.52,0.46l5.76,8.89l3.33-10.18   c0.1-0.29,0.16-0.43,0.32-0.45s0.27,0.13,0.37,0.48l2.84,10.19c0.28,1.04,0.51,1.51,1.03,1.59c0.5,0.09,0.84,0.06,1.06,0.04   c0.15-0.02,0.27-0.02,0.28,0.08c0.02,0.14-0.17,0.21-0.41,0.24c-0.41,0.05-2.73,0.3-3.4,0.33c-0.39,0.02-0.49-0.02-0.51-0.12   c-0.01-0.09,0.05-0.14,0.16-0.21c0.1-0.05,0.12-0.27-0.01-0.74l-1.94-7.26l-0.07,0.01l-2.67,8.1c-0.28,0.84-0.35,1-0.5,1.02   s-0.36-0.3-0.69-0.77c-0.5-0.72-2.15-3.12-2.4-3.57c-0.19-0.33-1.47-2.32-2.21-3.51l-0.07,0.01l-0.02,6.8   c0.01,0.31,0.02,0.53,0.05,0.8c0.04,0.32,0.27,0.44,0.57,0.47c0.31,0.02,0.54,0.01,0.71-0.01c0.13-0.02,0.25,0,0.26,0.09   c0.02,0.15-0.13,0.2-0.37,0.23c-0.7,0.09-1.46,0.14-1.76,0.18c-0.32,0.04-1.11,0.19-1.65,0.26c-0.17,0.02-0.31,0.01-0.33-0.15   c-0.01-0.09,0.09-0.13,0.26-0.15c0.13-0.02,0.25-0.03,0.49-0.12c0.46-0.16,0.51-0.83,0.52-1.41L104.69,9.27z M134.13,19.04   c-1.47-1.64-1.68-3.58-1.49-5.21c0.14-1.14,0.72-3.09,2.5-4.38c1.34-0.97,3-1.45,5.49-1.16c1.04,0.12,1.65,0.27,2.41,0.46   c0.62,0.16,1.14,0.37,1.64,0.49c0.18,0.04,0.24,0.13,0.23,0.23c-0.02,0.13-0.09,0.33-0.19,0.92c-0.1,0.55-0.19,1.48-0.26,1.81   c-0.05,0.25-0.1,0.38-0.25,0.36c-0.13-0.02-0.15-0.15-0.13-0.39c0.05-0.52-0.1-1.14-0.46-1.63c-0.48-0.66-1.73-1.26-3.28-1.45   c-1.45-0.17-2.45,0.09-3.26,0.67c-1.35,0.98-1.86,2.54-2.05,4.18c-0.47,4.01,2.32,6.35,4.57,6.62c1.49,0.18,2.41,0.12,3.17-0.58   c0.32-0.29,0.59-0.75,0.7-1.05c0.08-0.26,0.12-0.33,0.25-0.31c0.12,0.01,0.14,0.13,0.12,0.27c-0.02,0.2-0.4,1.64-0.63,2.19   c-0.12,0.28-0.2,0.36-0.49,0.44c-0.7,0.19-1.99,0.15-3.06,0.03C137.36,21.29,135.5,20.55,134.13,19.04 M149.54,16.4   c-0.82,2.89,0.05,6.93,4.7,8.27c4.11,1.19,7.54-1.01,8.61-4.74c1.06-3.73-0.77-6.82-4.8-7.98   C153.19,10.54,150.34,13.61,149.54,16.4 M160.41,19.88c-1.34,4.71-4.12,4.5-5.26,4.18c-3.11-0.9-4.2-4.12-3.23-7.51   c1.16-4.05,3.57-4.49,5.43-3.95C160.01,13.36,161.45,16.23,160.41,19.88 M170.65,25.28c-0.89,1.97-1.37,3.04-1.18,3.46   c0.16,0.35,0.5,0.64,1.7,1.19c0.81,0.37,1.41,0.63,1.99,0.39c0.27-0.12,0.65-0.46,0.81-0.74c0.08-0.13,0.15-0.21,0.27-0.15   c0.11,0.05,0.09,0.13,0,0.32c-0.08,0.17-0.7,1.28-1.03,1.67c-0.25,0.3-0.36,0.34-1.16-0.02c-1.1-0.51-1.88-0.9-2.56-1.23   c-0.67-0.35-1.22-0.62-1.85-0.91c-0.17-0.08-0.51-0.23-0.88-0.39c-0.35-0.16-0.76-0.31-1.07-0.45c-0.2-0.09-0.29-0.19-0.24-0.29   c0.04-0.08,0.12-0.1,0.3-0.01c0.23,0.1,0.43,0.16,0.58,0.19c0.33,0.08,0.56-0.22,0.83-0.64c0.37-0.61,0.92-1.83,1.56-3.25   l1.23-2.71c1.06-2.34,1.26-2.77,1.45-3.28c0.21-0.54,0.19-0.84-0.26-1.18c-0.11-0.09-0.29-0.19-0.48-0.28   c-0.17-0.08-0.25-0.15-0.2-0.26s0.18-0.09,0.4,0.01c0.72,0.33,1.66,0.82,2.08,1.01c0.36,0.17,1.51,0.64,2.1,0.91   c0.22,0.1,0.31,0.18,0.26,0.29s-0.16,0.1-0.34,0.01c-0.17-0.08-0.42-0.18-0.62-0.23c-0.45-0.11-0.69,0.09-0.96,0.62   c-0.26,0.48-0.45,0.91-1.51,3.25L170.65,25.28z M182.58,31.66c-1.13,1.85-1.74,2.84-1.6,3.29c0.11,0.37,0.42,0.7,1.54,1.39   c0.76,0.47,1.33,0.8,1.92,0.64c0.29-0.08,0.71-0.38,0.9-0.64c0.1-0.12,0.18-0.19,0.29-0.12c0.1,0.06,0.07,0.15-0.04,0.32   c-0.09,0.16-0.86,1.18-1.23,1.53c-0.27,0.26-0.4,0.29-1.14-0.17c-1.03-0.64-1.76-1.13-2.39-1.55c-0.63-0.43-1.14-0.77-1.73-1.13   c-0.15-0.1-0.47-0.29-0.82-0.49c-0.33-0.21-0.72-0.41-1.01-0.58c-0.19-0.12-0.26-0.22-0.2-0.32c0.05-0.07,0.13-0.08,0.3,0.03   c0.21,0.13,0.41,0.21,0.55,0.26c0.32,0.12,0.59-0.15,0.9-0.54c0.44-0.57,1.14-1.7,1.96-3.03l1.55-2.54   c1.34-2.19,1.59-2.6,1.85-3.08c0.27-0.51,0.29-0.81-0.12-1.2c-0.1-0.1-0.26-0.22-0.44-0.34c-0.16-0.1-0.23-0.18-0.17-0.28   s0.18-0.07,0.4,0.07c0.67,0.42,1.55,1.02,1.94,1.26c0.35,0.22,1.42,0.82,1.98,1.17c0.2,0.12,0.28,0.21,0.22,0.32   c-0.06,0.1-0.16,0.08-0.33-0.03c-0.16-0.1-0.4-0.23-0.58-0.3c-0.43-0.17-0.7,0-1.03,0.49c-0.31,0.44-0.56,0.85-1.9,3.04   L182.58,31.66z M193.86,35.82c1.6-2.01,1.9-2.37,2.21-2.82c0.33-0.47,0.4-0.77,0.04-1.21c-0.09-0.11-0.3-0.31-0.48-0.46   c-0.15-0.12-0.2-0.21-0.13-0.3c0.07-0.09,0.18-0.05,0.38,0.11c0.35,0.29,0.72,0.61,1.05,0.88c0.33,0.29,0.62,0.55,0.8,0.7   c0.42,0.34,3.03,2.45,3.28,2.64c0.27,0.18,0.5,0.32,0.63,0.38c0.08,0.04,0.18,0.06,0.25,0.12c0.07,0.05,0.04,0.12-0.02,0.18   c-0.07,0.09-0.26,0.2-0.79,0.77c-0.12,0.12-0.61,0.68-0.76,0.82c-0.06,0.05-0.15,0.12-0.25,0.04c-0.09-0.07-0.07-0.16,0.03-0.28   c0.07-0.09,0.24-0.32,0.3-0.54c0.1-0.31,0.1-0.58-0.49-1.19c-0.21-0.2-1.56-1.35-1.82-1.56c-0.07-0.05-0.13-0.03-0.2,0.06   l-2.67,3.34c-0.07,0.09-0.1,0.16-0.03,0.22c0.29,0.24,1.8,1.46,2.12,1.68c0.34,0.23,0.57,0.35,0.79,0.31   c0.17-0.03,0.28-0.05,0.34,0c0.06,0.04,0.08,0.1,0.01,0.18c-0.06,0.08-0.28,0.25-0.88,0.88c-0.22,0.26-0.69,0.75-0.76,0.84   c-0.08,0.1-0.19,0.25-0.32,0.15c-0.09-0.07-0.08-0.15-0.02-0.21c0.09-0.14,0.23-0.32,0.32-0.52c0.15-0.32,0.12-0.66-0.32-1.11   c-0.23-0.23-1.51-1.29-1.83-1.55c-0.06-0.05-0.12-0.01-0.18,0.07l-0.83,1.04c-0.36,0.45-1.34,1.65-1.64,2.04   c-0.7,0.93-0.65,1.3,0.68,2.38c0.34,0.28,0.89,0.72,1.36,0.84s0.85-0.03,1.37-0.5c0.15-0.12,0.21-0.15,0.3-0.08   c0.11,0.09,0.02,0.19-0.08,0.32c-0.25,0.3-1.07,1.11-1.34,1.33c-0.37,0.27-0.48,0.17-0.98-0.23c-0.98-0.8-1.68-1.4-2.23-1.88   c-0.54-0.48-0.94-0.83-1.33-1.14c-0.14-0.12-0.43-0.35-0.76-0.59c-0.3-0.24-0.66-0.49-0.93-0.71c-0.16-0.14-0.22-0.26-0.15-0.35   c0.05-0.07,0.13-0.07,0.29,0.06c0.19,0.16,0.38,0.26,0.51,0.33c0.31,0.16,0.6-0.08,0.97-0.42c0.5-0.5,1.34-1.54,2.31-2.76   L193.86,35.82z M206.77,57.52c-0.34,0.31-0.37,0.32-0.6,0.25c-1.16-0.42-2.41-1.52-3.31-2.49c-2.79-3.05-3.83-7.09-0.41-10.26   c1.98-1.84,4.31-2.09,6.03-1.59c1.81,0.53,2.91,1.56,3.87,2.61c0.78,0.86,1.64,2.09,1.82,2.39c0.19,0.31,0.51,0.81,0.77,1.11   c0.12,0.16,0.1,0.23,0.01,0.31c-0.14,0.13-0.57,0.36-2.11,1.8c-0.19,0.18-0.29,0.2-0.38,0.1c-0.08-0.09-0.04-0.17,0.05-0.27   c0.25-0.3,0.59-0.73,0.64-1.37c0.05-0.74-0.29-2.27-1.57-3.68c-0.63-0.69-1.51-1.55-3.03-1.76c-1.22-0.16-2.56,0.26-4.09,1.67   c-2.66,2.47-3.09,6.02-0.68,8.66c0.29,0.32,0.69,0.76,1.1,0.93c0.26,0.1,0.46,0.01,0.68-0.19l1.16-1.08   c0.62-0.57,1.09-1.01,1.45-1.37c0.41-0.4,0.51-0.7,0.22-1.19c-0.07-0.12-0.25-0.35-0.41-0.52c-0.1-0.11-0.15-0.21-0.07-0.28   c0.1-0.09,0.2-0.03,0.36,0.15c0.59,0.65,1.27,1.47,1.61,1.84c0.36,0.38,1,1.01,1.37,1.42c0.15,0.16,0.2,0.27,0.1,0.36   c-0.07,0.07-0.17,0.02-0.25-0.07c-0.09-0.1-0.18-0.18-0.34-0.3c-0.37-0.28-0.69-0.21-1.14,0.18c-0.38,0.33-0.88,0.79-1.5,1.36   L206.77,57.52z M216.78,59.76c2.1-1.47,2.49-1.74,2.91-2.09c0.45-0.36,0.58-0.66,0.44-1.01c-0.06-0.18-0.18-0.37-0.29-0.54   c-0.09-0.14-0.12-0.24-0.02-0.32c0.09-0.06,0.19,0.03,0.35,0.26c0.36,0.53,0.93,1.43,1.21,1.84c0.24,0.35,0.85,1.14,1.21,1.67   c0.13,0.18,0.18,0.31,0.09,0.37c-0.11,0.08-0.2,0.01-0.29-0.12c-0.09-0.14-0.19-0.24-0.33-0.39c-0.33-0.33-0.64-0.27-1.14,0.04   c-0.46,0.29-0.84,0.56-2.94,2.03l-2.43,1.71c-1.34,0.94-2.43,1.7-2.98,2.18c-0.34,0.3-0.52,0.58-0.29,1.03   c0.11,0.21,0.29,0.54,0.44,0.75c0.1,0.15,0.11,0.25,0.04,0.3c-0.09,0.07-0.21-0.01-0.32-0.17c-0.64-0.92-1.2-1.82-1.47-2.19   c-0.22-0.32-0.87-1.17-1.25-1.72c-0.13-0.18-0.15-0.31-0.05-0.38c0.07-0.05,0.15-0.02,0.27,0.15c0.15,0.21,0.29,0.35,0.4,0.46   c0.25,0.24,0.54,0.16,0.97-0.08c0.63-0.34,1.72-1.1,3.06-2.04L216.78,59.76z M222.63,68.73c2.27-1.18,2.69-1.4,3.15-1.68   c0.5-0.29,0.67-0.54,0.52-1.09c-0.03-0.14-0.15-0.4-0.26-0.61c-0.09-0.16-0.1-0.27,0.01-0.32c0.1-0.05,0.19,0.04,0.3,0.26   c0.41,0.8,0.85,1.77,1.08,2.22c0.18,0.36,0.71,1.28,0.99,1.83c0.12,0.22,0.14,0.35,0.04,0.4c-0.11,0.05-0.18-0.02-0.26-0.17   c-0.09-0.17-0.15-0.25-0.27-0.41c-0.28-0.37-0.6-0.36-1.14-0.12c-0.5,0.22-0.92,0.44-3.19,1.62l-2.09,1.09   c-2.17,1.12-2.86,2.03-3.08,3.08c-0.21,0.97,0.09,1.69,0.35,2.2c0.34,0.66,0.97,1.37,1.87,1.66c1.24,0.4,2.61-0.25,4.16-1.05   l1.87-0.97c2.27-1.18,2.69-1.4,3.15-1.67c0.49-0.29,0.67-0.54,0.52-1.09c-0.03-0.14-0.15-0.4-0.23-0.57   c-0.09-0.17-0.1-0.27,0.01-0.32c0.1-0.05,0.19,0.03,0.29,0.24c0.4,0.77,0.84,1.74,0.85,1.75c0.09,0.18,0.63,1.11,0.92,1.7   c0.11,0.21,0.13,0.33,0.02,0.39c-0.1,0.05-0.18-0.02-0.27-0.2c-0.09-0.16-0.15-0.25-0.27-0.41c-0.29-0.37-0.6-0.36-1.14-0.12   c-0.49,0.22-0.91,0.43-3.18,1.62l-1.6,0.83c-1.66,0.86-3.51,1.61-5.23,0.91c-1.46-0.6-2.18-1.59-2.68-2.57   c-0.41-0.8-1.11-2.27-0.68-3.88c0.3-1.12,1.11-2.27,3.28-3.39L222.63,68.73z M235.41,85c0.29-0.04,0.46,0.02,0.5,0.15   c0.04,0.13-0.01,0.25-0.36,0.59l-7.75,7.21l10.53,1.59c0.3,0.05,0.45,0.09,0.5,0.24c0.04,0.15-0.09,0.29-0.41,0.44l-9.51,4.53   c-0.97,0.46-1.39,0.76-1.39,1.29c0,0.52,0.08,0.85,0.14,1.06c0.04,0.15,0.07,0.27-0.04,0.29c-0.13,0.04-0.24-0.14-0.3-0.36   c-0.12-0.41-0.75-2.66-0.9-3.33c-0.08-0.38-0.06-0.49,0.04-0.52c0.08-0.02,0.15,0.02,0.23,0.12c0.07,0.09,0.28,0.07,0.72-0.13   l6.79-3.15l-0.02-0.06l-8.38-1.29c-0.87-0.14-1.04-0.18-1.08-0.32c-0.05-0.15,0.23-0.41,0.63-0.81c0.63-0.62,2.7-2.65,3.09-2.98   c0.29-0.25,2.03-1.84,3.06-2.78l-0.02-0.07l-6.66,1.12c-0.3,0.06-0.52,0.1-0.77,0.18c-0.31,0.09-0.39,0.35-0.37,0.64   c0.02,0.31,0.08,0.55,0.13,0.71c0.04,0.13,0.04,0.25-0.04,0.28c-0.15,0.04-0.22-0.09-0.29-0.33c-0.2-0.68-0.38-1.43-0.46-1.72   c-0.1-0.31-0.38-1.07-0.54-1.59c-0.05-0.16-0.05-0.3,0.09-0.35c0.08-0.02,0.15,0.06,0.19,0.22c0.04,0.13,0.07,0.24,0.2,0.47   c0.24,0.42,0.9,0.36,1.47,0.27L235.41,85z M232.88,113.9c0.44-0.5,0.99-0.78,1.65-0.83c0.66-0.05,1.24,0.14,1.74,0.57   s0.78,0.99,0.83,1.65c0.05,0.67-0.14,1.25-0.57,1.74s-0.97,0.77-1.64,0.82s-1.25-0.14-1.76-0.57s-0.78-0.97-0.84-1.63   C232.26,114.99,232.45,114.4,232.88,113.9 M13.77,140.95c0.01,0.09-0.02,0.13-0.1,0.18l-3.35,1.71c-0.19,0.1-0.35,0.01-0.4-0.11   c-0.04-0.16-0.07-0.22-0.17-0.21c-0.12,0.01-0.09,0.21-0.08,0.51c0.12,1.32,0.25,2.53,0.32,3.12c0.07,0.61,0.12,0.75,0.25,0.74   c0.12-0.01,0.12-0.1,0.11-0.23c-0.02-0.2-0.03-0.45-0.01-0.7c0.04-0.35,0.22-0.86,1.64-1.65c2.4-1.34,8.84-4.73,9.71-5.22   c0.36-0.21,0.5-0.32,0.49-0.47c-0.02-0.16-0.22-0.24-0.72-0.38l-10.84-2.98c-0.86-0.24-1.46-0.49-1.65-1.23   c-0.03-0.13-0.07-0.36-0.09-0.51c-0.01-0.13-0.06-0.19-0.16-0.18c-0.13,0.02-0.15,0.12-0.13,0.33c0.1,0.85,0.24,1.76,0.27,1.94   c0.05,0.51,0.09,1.22,0.14,1.75c0.02,0.18,0.07,0.27,0.2,0.26c0.1-0.02,0.13-0.07,0.1-0.26l-0.03-0.25   c-0.06-0.51,0.14-0.68,0.44-0.72c0.19-0.02,0.6,0.02,1.04,0.14l2.46,0.62c0.1,0.02,0.14,0.05,0.15,0.13L13.77,140.95z    M14.22,137.52c-0.01-0.06,0.04-0.09,0.11-0.08l4.23,1.06c0.07,0.01,0.16,0.03,0.16,0.08s-0.08,0.08-0.14,0.1l-3.92,1.94   c-0.05,0.02-0.1,0.01-0.11-0.07L14.22,137.52z M15.94,151.29c-1.48,0.4-2.74,0.74-3.44,0.85c-0.48,0.06-0.86,0.07-1.01-0.22   c-0.07-0.14-0.15-0.32-0.22-0.56c-0.05-0.19-0.12-0.24-0.19-0.22c-0.12,0.03-0.13,0.15-0.07,0.36c0.09,0.32,0.24,0.73,0.33,1.1   c0.12,0.38,0.21,0.73,0.26,0.9c0.11,0.4,0.21,0.98,0.33,1.59c0.12,0.62,0.25,1.29,0.41,1.87c0.81,2.96,2.4,4.31,3.35,4.84   c1.16,0.65,2.93,1.08,4.95,0.52c1.91-0.52,3.04-1.62,3.65-2.65c1.36-2.24,0.62-4.91,0.08-6.91c-0.26-0.96-0.58-1.95-0.72-2.45   c-0.12-0.45-0.35-1.47-0.58-2.32c-0.07-0.24-0.13-0.34-0.24-0.31s-0.12,0.14-0.07,0.31c0.06,0.22,0.12,0.5,0.12,0.64   c0.03,0.56-0.19,0.75-0.73,0.94c-0.51,0.17-0.95,0.29-3.39,0.95L15.94,151.29z M19.56,152.45c1.26-0.35,2.66-0.72,3.21-0.86   c0.18-0.04,0.27-0.02,0.37,0.11c0.1,0.11,0.31,0.69,0.4,1.01c0.34,1.25,0.64,3.12-0.36,4.98c-0.47,0.86-1.56,2.07-3.59,2.62   c-1.65,0.44-3.2,0.53-4.36-0.26c-1.1-0.74-1.71-1.74-2.16-3.37c-0.34-1.26-0.18-1.98,0.07-2.27c0.14-0.17,0.77-0.38,1.17-0.5   c0.3-0.1,1.53-0.45,3.23-0.91L19.56,152.45z M21.63,169.04c-1.39,0.63-2.59,1.17-3.26,1.38c-0.47,0.14-0.83,0.21-1.03-0.07   c-0.09-0.12-0.2-0.29-0.3-0.52c-0.08-0.18-0.16-0.22-0.23-0.19c-0.1,0.05-0.1,0.18-0.01,0.37c0.27,0.61,0.75,1.54,0.88,1.82   c0.1,0.23,0.57,1.37,0.97,2.24c0.09,0.2,0.18,0.28,0.29,0.23c0.07-0.03,0.09-0.11,0.04-0.23c-0.08-0.18-0.21-0.53-0.28-0.77   c-0.15-0.49,0.15-0.72,0.57-0.97c0.6-0.36,1.8-0.9,3.21-1.54l0.21-0.1c0.09-0.04,0.14-0.01,0.18,0.07l0.57,1.33   c0.05,0.11,0.07,0.2,0.02,0.32c-0.13,0.3-0.85,1.46-1.41,2.43c-0.78,1.37-1.23,2.27-1.29,3.08c-0.04,0.49,0.06,0.9,0.44,1.75   l0.65,1.43c0.08,0.18,0.16,0.27,0.28,0.22c0.07-0.03,0.09-0.11,0.04-0.23s-0.1-0.26-0.15-0.45c-0.06-0.24-0.23-0.91,0.26-2.15   c0.54-1.31,1.41-2.97,2.5-5.08c1.94,0.96,3.18,0.97,4.3,0.46c1.01-0.46,1.51-1.41,1.61-1.96c0.19-1.07-0.18-2.12-0.61-3.07   c-0.21-0.46-0.78-1.6-1.01-2.11c-0.15-0.32-0.53-1.29-0.89-2.09c-0.1-0.22-0.18-0.32-0.29-0.27c-0.11,0.04-0.1,0.15-0.02,0.32   c0.1,0.21,0.19,0.48,0.22,0.61c0.12,0.55-0.07,0.78-0.57,1.04c-0.47,0.25-0.9,0.44-3.2,1.48L21.63,169.04z M28.51,168.08   c0.12-0.05,0.2-0.05,0.27,0.04c0.12,0.13,0.25,0.4,0.43,0.78c0.4,0.89,0.43,2.59-1.72,3.56c-1.25,0.56-2.14,0.43-2.68,0.13   c-0.32-0.18-0.47-0.35-0.75-0.95c-0.17-0.38-0.33-0.85-0.37-1.22c0-0.13,0.05-0.18,0.21-0.26L28.51,168.08z M31.22,181.53   c2.16-1.31,2.57-1.55,3-1.85c0.47-0.32,0.62-0.61,0.5-0.97c-0.05-0.18-0.15-0.38-0.26-0.54c-0.08-0.14-0.11-0.24,0.01-0.31   c0.09-0.05,0.18,0.04,0.32,0.27c0.33,0.53,0.83,1.46,1.08,1.87c0.21,0.35,0.77,1.17,1.09,1.7c0.11,0.18,0.15,0.32,0.07,0.37   c-0.12,0.07-0.2,0-0.28-0.14c-0.09-0.15-0.17-0.25-0.3-0.4c-0.3-0.34-0.61-0.31-1.13-0.04c-0.47,0.25-0.87,0.49-3.04,1.79   l-2.5,1.52c-1.38,0.83-2.5,1.51-3.08,1.94c-0.36,0.27-0.55,0.53-0.35,0.99c0.09,0.21,0.25,0.55,0.38,0.76   c0.1,0.16,0.1,0.25,0.02,0.3c-0.1,0.06-0.21-0.03-0.31-0.19c-0.57-0.93-1.07-1.85-1.3-2.24c-0.2-0.33-0.79-1.19-1.13-1.76   c-0.11-0.19-0.13-0.31-0.03-0.37c0.07-0.04,0.15-0.01,0.25,0.16c0.13,0.21,0.27,0.36,0.37,0.47c0.23,0.25,0.52,0.19,0.96-0.02   c0.64-0.29,1.77-0.97,3.14-1.81L31.22,181.53z M36.87,195.69c0.05,0.07,0.06,0.13,0.01,0.2l-1.97,3.2c-0.11,0.19-0.3,0.19-0.4,0.12   c-0.12-0.12-0.18-0.15-0.27-0.09c-0.09,0.07,0.04,0.22,0.2,0.47c0.79,1.07,1.54,2.03,1.91,2.5c0.37,0.49,0.49,0.58,0.6,0.5   c0.09-0.07,0.05-0.15-0.03-0.25c-0.12-0.16-0.27-0.37-0.38-0.59c-0.15-0.33-0.26-0.85,0.53-2.26c1.35-2.39,5.08-8.64,5.56-9.51   c0.2-0.37,0.26-0.53,0.16-0.65c-0.1-0.13-0.31-0.1-0.81,0.04l-10.82,3.1c-0.86,0.25-1.5,0.35-2.05-0.2   c-0.09-0.09-0.25-0.26-0.34-0.38c-0.08-0.1-0.15-0.14-0.23-0.07c-0.1,0.08-0.07,0.18,0.06,0.35c0.53,0.68,1.13,1.37,1.25,1.52   c0.32,0.41,0.71,1,1.04,1.42c0.12,0.14,0.2,0.2,0.31,0.12c0.08-0.06,0.07-0.12-0.05-0.28l-0.15-0.2c-0.32-0.4-0.23-0.65,0-0.84   c0.16-0.12,0.53-0.3,0.95-0.43l2.43-0.75c0.1-0.04,0.15-0.03,0.2,0.04L36.87,195.69z M35.45,192.52c-0.04-0.05-0.01-0.1,0.05-0.12   l4.17-1.3c0.06-0.02,0.15-0.05,0.18-0.01c0.03,0.04-0.03,0.1-0.07,0.16l-2.33,3.69c-0.03,0.04-0.08,0.06-0.13,0L35.45,192.52z    M43.02,205.89c-0.87,0.96-1.01,1.42-0.85,1.74c0.13,0.26,0.35,0.49,0.55,0.67c0.13,0.12,0.18,0.21,0.11,0.29   c-0.09,0.1-0.22,0.02-0.39-0.14c-0.78-0.75-1.23-1.23-1.46-1.45c-0.11-0.1-0.71-0.6-1.34-1.19c-0.16-0.15-0.26-0.26-0.15-0.37   c0.07-0.07,0.16-0.03,0.29,0.09c0.15,0.15,0.38,0.34,0.6,0.45c0.4,0.2,0.78-0.1,1.79-1.14l6.88-7.01c0.23-0.24,0.43-0.38,0.55-0.26   c0.13,0.12,0.09,0.39,0.09,0.8c0,0.3-0.04,3.99,0.07,7.4c0.04,1.59,0.02,4.86,0.04,5.26l0.06,0.05l5.02-5.51   c0.68-0.75,0.8-1.08,0.62-1.47c-0.11-0.24-0.4-0.52-0.57-0.67c-0.15-0.14-0.16-0.22-0.09-0.3c0.09-0.09,0.23,0.02,0.42,0.19   c0.63,0.6,1.17,1.18,1.42,1.42c0.13,0.13,0.63,0.52,1.22,1.08c0.16,0.15,0.27,0.28,0.18,0.37c-0.07,0.07-0.18,0.04-0.32-0.1   c-0.12-0.12-0.22-0.21-0.4-0.31c-0.43-0.22-0.77-0.06-1.42,0.6l-7.36,7.46c-0.26,0.27-0.4,0.33-0.51,0.22   c-0.13-0.12-0.15-0.39-0.16-0.65c-0.07-1.44-0.12-4.48-0.19-6.91c-0.08-2.54,0.02-5.31,0.02-5.74l-0.04-0.04L43.02,205.89z    M60.14,213.4c1.48-2.04,1.75-2.42,2.04-2.86c0.3-0.47,0.33-0.8,0.09-1.09c-0.12-0.15-0.29-0.29-0.44-0.4   c-0.13-0.1-0.2-0.18-0.12-0.29c0.06-0.08,0.18-0.03,0.4,0.13c0.51,0.37,1.34,1.02,1.72,1.3c0.34,0.24,1.16,0.78,1.68,1.14   c0.17,0.13,0.26,0.23,0.2,0.31c-0.08,0.11-0.18,0.08-0.32-0.02c-0.13-0.09-0.25-0.16-0.43-0.25c-0.41-0.19-0.68-0.04-1.05,0.41   c-0.34,0.41-0.61,0.78-2.09,2.83l-1.72,2.36c-0.95,1.31-1.71,2.36-2.08,2.98c-0.22,0.39-0.3,0.7,0.06,1.05   c0.17,0.16,0.44,0.4,0.65,0.55c0.15,0.11,0.18,0.2,0.14,0.27c-0.07,0.09-0.21,0.05-0.35-0.05c-0.89-0.64-1.71-1.29-2.07-1.56   c-0.31-0.22-1.19-0.8-1.73-1.19c-0.17-0.12-0.24-0.23-0.17-0.32c0.04-0.07,0.13-0.07,0.29,0.04c0.2,0.15,0.38,0.23,0.53,0.3   c0.31,0.13,0.56-0.03,0.88-0.39c0.48-0.52,1.25-1.58,2.19-2.88L60.14,213.4z M71.72,224.19c-0.73,1.34-1.36,2.49-1.76,3.06   c-0.29,0.4-0.53,0.67-0.86,0.57c-0.15-0.04-0.34-0.11-0.54-0.22c-0.16-0.08-0.21-0.05-0.26,0.03c-0.05,0.1,0,0.17,0.2,0.28   c0.28,0.15,0.61,0.31,0.94,0.47c0.3,0.16,0.61,0.31,0.78,0.4c0.44,0.23,0.88,0.5,1.5,0.86s1.41,0.82,2.5,1.41   c0.56,0.3,0.69,0.38,1,0.05c0.23-0.25,0.89-1.18,1.07-1.52c0.08-0.14,0.14-0.26,0.03-0.32c-0.1-0.05-0.16-0.01-0.28,0.13   c-0.43,0.54-0.77,0.75-1.25,0.72c-0.47-0.03-1.09-0.36-1.47-0.57c-1.49-0.81-1.61-1.15-1.09-2.18c0.04-0.07,0.97-1.75,1.24-2.25   l0.37-0.68c0.05-0.09,0.09-0.14,0.17-0.1c0.35,0.19,1.78,1,2.04,1.18c0.51,0.36,0.6,0.69,0.51,1.01c-0.06,0.21-0.16,0.4-0.23,0.56   c-0.04,0.07-0.04,0.14,0.07,0.2c0.13,0.07,0.21-0.09,0.28-0.21c0.06-0.1,0.42-0.66,0.59-0.95c0.46-0.71,0.64-0.91,0.7-1   c0.05-0.1,0.02-0.15-0.03-0.18c-0.07-0.04-0.17,0-0.34,0.06c-0.21,0.08-0.45,0-0.82-0.16c-0.35-0.15-2.03-1.06-2.35-1.23   c-0.09-0.05-0.07-0.12-0.02-0.22l2.26-4.15c0.05-0.11,0.11-0.13,0.18-0.09c0.29,0.15,1.81,1.01,2.05,1.18   c0.68,0.48,0.73,0.74,0.69,1.05c-0.02,0.21-0.15,0.47-0.2,0.57c-0.07,0.13-0.08,0.22,0.02,0.28c0.1,0.05,0.19-0.01,0.24-0.08   c0.13-0.16,0.5-0.78,0.6-0.92c0.41-0.65,0.57-0.78,0.63-0.88c0.04-0.07,0.06-0.14-0.02-0.18c-0.07-0.04-0.18-0.05-0.27-0.07   c-0.13-0.03-0.38-0.13-0.68-0.25c-0.29-0.13-3.2-1.71-3.66-1.96c-0.24-0.12-0.38-0.23-0.51-0.31c-0.12-0.06-0.18-0.12-0.24-0.15   c-0.1-0.05-0.21,0-0.3,0.1c-0.09,0.08-0.26,0.24-0.67,0.47c-0.38,0.21-9.07,5.02-9.86,5.37c-0.52,0.21-1.33,0.77-2.37,0.67   c-0.28-0.01-0.57-0.14-0.7-0.21c-0.15-0.08-0.22-0.08-0.27,0.01c-0.05,0.1-0.04,0.16,0.13,0.25c0.76,0.41,1.62,0.82,1.88,0.96   c0.29,0.16,1.13,0.67,2.07,1.17c0.16,0.09,0.3,0.1,0.36,0.01c0.05-0.09-0.01-0.16-0.15-0.24c-0.27-0.15-0.53-0.35-0.67-0.53   c-0.1-0.13-0.13-0.34-0.03-0.54c0.11-0.21,0.47-0.52,1.42-1.08c0.47-0.28,2.76-1.71,3.05-1.86c0.11-0.05,0.19-0.03,0.3,0.03   l2.35,1.27c0.09,0.04,0.12,0.1,0.07,0.19L71.72,224.19z M72.59,222.57c-0.04,0.08-0.09,0.1-0.19,0.04l-1.96-1.06   c-0.1-0.05-0.12-0.1,0-0.19c0.29-0.21,3.37-1.99,3.99-2.37l0.07,0.04L72.59,222.57z M101.44,227.42c0.1-0.27,0.22-0.4,0.35-0.37   c0.13,0.02,0.21,0.12,0.35,0.58l2.81,10.01l6.13-8.52c0.18-0.24,0.28-0.35,0.43-0.33c0.15,0.03,0.22,0.21,0.21,0.56l-0.33,10.35   c-0.04,1.06,0.04,1.56,0.51,1.79c0.45,0.24,0.77,0.3,0.98,0.35c0.15,0.02,0.26,0.06,0.24,0.16c-0.03,0.13-0.23,0.14-0.46,0.11   c-0.41-0.08-2.66-0.53-3.31-0.7c-0.37-0.1-0.46-0.16-0.44-0.26c0.01-0.09,0.09-0.12,0.21-0.15c0.11-0.01,0.19-0.21,0.21-0.68   l0.32-7.36l-0.07-0.01l-4.91,6.77c-0.51,0.7-0.62,0.83-0.77,0.8c-0.15-0.02-0.25-0.38-0.42-0.92c-0.26-0.82-1.1-3.55-1.22-4.04   c-0.09-0.37-0.7-2.6-1.05-3.93l-0.07-0.02l-2.02,6.35c-0.09,0.29-0.14,0.49-0.19,0.75c-0.06,0.31,0.13,0.5,0.4,0.61   c0.29,0.12,0.51,0.18,0.68,0.21c0.13,0.02,0.24,0.07,0.22,0.16c-0.03,0.15-0.18,0.15-0.42,0.11c-0.69-0.12-1.42-0.3-1.71-0.36   c-0.31-0.05-1.11-0.15-1.63-0.24c-0.16-0.03-0.29-0.08-0.26-0.23c0.01-0.08,0.12-0.1,0.28-0.07c0.13,0.02,0.25,0.04,0.5,0.04   c0.48-0.02,0.72-0.63,0.91-1.17L101.44,227.42z M124.44,238.16c0.09,0,0.13,0.03,0.16,0.12l1.26,3.54c0.08,0.2-0.04,0.34-0.16,0.38   c-0.16,0.02-0.23,0.05-0.23,0.15c-0.01,0.12,0.2,0.12,0.49,0.14c1.33,0.06,2.54,0.08,3.14,0.09c0.62,0.02,0.77-0.02,0.77-0.15   c0-0.12-0.09-0.13-0.22-0.14c-0.19,0-0.44-0.03-0.69-0.08c-0.35-0.09-0.82-0.33-1.43-1.83c-1.01-2.55-3.54-9.36-3.92-10.28   c-0.16-0.38-0.26-0.54-0.41-0.54c-0.16-0.01-0.27,0.18-0.48,0.65l-4.38,10.33c-0.35,0.82-0.67,1.38-1.44,1.46   c-0.13,0.02-0.37,0.03-0.52,0.02c-0.13,0-0.2,0.03-0.2,0.13c0,0.13,0.1,0.16,0.31,0.17c0.86,0.02,1.78-0.01,1.96-0.01   c0.51,0.01,1.23,0.07,1.76,0.08c0.18,0.01,0.29-0.03,0.29-0.16c0-0.1-0.05-0.13-0.25-0.14l-0.25-0.01   c-0.51-0.01-0.66-0.23-0.65-0.53c0.01-0.2,0.1-0.6,0.27-1.01l0.95-2.35c0.03-0.1,0.07-0.13,0.15-0.13L124.44,238.16z    M121.08,237.27c-0.07-0.01-0.08-0.05-0.07-0.12l1.61-4.04c0.02-0.07,0.05-0.16,0.1-0.15c0.05,0,0.07,0.08,0.08,0.15l1.42,4.13   c0.01,0.05,0,0.1-0.09,0.1L121.08,237.27z M134.97,237.35c0.17,1.51,0.32,2.81,0.32,3.51c-0.01,0.49-0.05,0.86-0.38,0.96   c-0.15,0.05-0.34,0.11-0.59,0.14c-0.2,0.02-0.26,0.08-0.25,0.16c0.01,0.12,0.14,0.15,0.35,0.13c0.66-0.07,1.7-0.24,2.02-0.27   c0.25-0.03,1.48-0.12,2.43-0.23c0.21-0.02,0.33-0.09,0.31-0.2c-0.01-0.08-0.08-0.13-0.21-0.11c-0.2,0.02-0.57,0.03-0.82,0.02   c-0.5-0.01-0.64-0.36-0.74-0.83c-0.17-0.68-0.32-1.98-0.49-3.51l-0.03-0.23c-0.01-0.1,0.04-0.14,0.12-0.15l1.44-0.13   c0.12-0.01,0.22,0,0.32,0.09c0.24,0.22,1.13,1.26,1.89,2.08c1.08,1.16,1.79,1.87,2.54,2.17c0.46,0.18,0.88,0.22,1.81,0.11   l1.57-0.18c0.2-0.02,0.31-0.07,0.29-0.2c-0.01-0.08-0.08-0.13-0.21-0.11c-0.13,0.01-0.29,0.02-0.47,0   c-0.25-0.02-0.95-0.06-1.97-0.91c-1.09-0.91-2.41-2.25-4.08-3.93c1.51-1.54,1.9-2.72,1.76-3.93c-0.12-1.11-0.88-1.87-1.38-2.13   c-0.96-0.51-2.08-0.48-3.12-0.36c-0.51,0.05-1.76,0.25-2.32,0.31c-0.35,0.04-1.39,0.1-2.27,0.2c-0.25,0.04-0.36,0.09-0.35,0.2   c0.01,0.12,0.12,0.14,0.3,0.12c0.23-0.02,0.52-0.04,0.65-0.02c0.56,0.05,0.72,0.3,0.81,0.86c0.09,0.52,0.15,0.98,0.44,3.49   L134.97,237.35z M136.17,230.52c-0.02-0.14,0.01-0.21,0.12-0.26c0.16-0.07,0.46-0.11,0.87-0.16c0.97-0.11,2.6,0.39,2.87,2.73   c0.16,1.36-0.24,2.16-0.69,2.58c-0.27,0.25-0.48,0.34-1.14,0.41c-0.41,0.05-0.91,0.06-1.27-0.02c-0.12-0.03-0.16-0.1-0.18-0.28   L136.17,230.52z M150.42,227.96l-2.39,0.66c-0.92,0.26-1.29,0.44-1.45,0.85c-0.1,0.29-0.13,0.5-0.13,0.63s-0.04,0.21-0.13,0.24   c-0.11,0.03-0.16-0.04-0.21-0.22c-0.06-0.26-0.12-1.8-0.12-1.93c-0.01-0.22,0.02-0.33,0.12-0.36c0.13-0.03,0.33,0.09,0.74,0.02   c0.49-0.07,1.1-0.19,1.64-0.32l6.39-1.59c0.52-0.12,0.86-0.26,1.09-0.36s0.35-0.17,0.41-0.19c0.12-0.03,0.16,0.06,0.22,0.31   c0.08,0.34,0.32,1.46,0.41,1.88c0.03,0.16,0.02,0.27-0.08,0.29c-0.13,0.03-0.18-0.04-0.26-0.27l-0.06-0.18   c-0.13-0.41-0.69-0.75-2.13-0.43l-2.04,0.46l1.64,6.6c0.37,1.48,0.68,2.76,0.94,3.42c0.17,0.44,0.35,0.77,0.85,0.72   c0.23-0.03,0.6-0.08,0.84-0.14c0.17-0.04,0.27-0.01,0.29,0.07c0.02,0.11-0.09,0.19-0.27,0.24c-1.07,0.26-2.1,0.46-2.55,0.58   c-0.37,0.09-1.38,0.39-2.02,0.55c-0.21,0.05-0.33,0.03-0.37-0.08c-0.02-0.08,0.04-0.15,0.23-0.19c0.24-0.06,0.43-0.14,0.57-0.21   c0.31-0.15,0.32-0.53,0.25-1.01c-0.09-0.69-0.4-1.96-0.78-3.45L150.42,227.96z M163.24,228.16c-0.89-2.36-1.05-2.8-1.26-3.28   c-0.23-0.52-0.49-0.72-0.86-0.67c-0.18,0.02-0.4,0.08-0.58,0.15c-0.16,0.06-0.26,0.06-0.31-0.06c-0.03-0.09,0.08-0.17,0.33-0.27   c0.6-0.22,1.59-0.54,2.05-0.71c0.39-0.15,1.29-0.53,1.88-0.75c0.21-0.07,0.34-0.09,0.38,0.01c0.05,0.12-0.04,0.19-0.19,0.25   c-0.15,0.06-0.27,0.12-0.45,0.22c-0.4,0.24-0.41,0.55-0.25,1.1c0.16,0.51,0.32,0.94,1.21,3.3l1.03,2.74   c0.56,1.51,1.03,2.73,1.34,3.38c0.2,0.4,0.41,0.64,0.91,0.53c0.22-0.05,0.59-0.15,0.82-0.23c0.17-0.06,0.27-0.05,0.29,0.02   c0.04,0.12-0.06,0.21-0.24,0.27c-1.02,0.38-2.02,0.71-2.44,0.86c-0.36,0.14-1.33,0.55-1.94,0.78c-0.2,0.07-0.33,0.07-0.38-0.04   c-0.03-0.08,0.01-0.15,0.2-0.22c0.23-0.09,0.41-0.19,0.54-0.27c0.29-0.18,0.29-0.48,0.16-0.95c-0.16-0.68-0.62-1.91-1.19-3.41   L163.24,228.16z M172.78,224.19c-1.11-2.27-1.31-2.68-1.57-3.15c-0.27-0.49-0.55-0.67-0.91-0.58c-0.19,0.03-0.39,0.11-0.57,0.2   c-0.15,0.08-0.26,0.09-0.31-0.04c-0.04-0.09,0.06-0.18,0.3-0.29c0.57-0.27,1.53-0.69,1.96-0.9c0.37-0.18,1.24-0.65,1.81-0.93   c0.19-0.1,0.33-0.12,0.37-0.03c0.05,0.12-0.01,0.19-0.17,0.26c-0.15,0.07-0.26,0.15-0.43,0.26c-0.36,0.27-0.36,0.58-0.13,1.12   c0.2,0.49,0.4,0.91,1.51,3.17l1.28,2.62c0.71,1.45,1.28,2.63,1.65,3.23c0.24,0.38,0.48,0.6,0.96,0.44   c0.22-0.07,0.56-0.21,0.78-0.31c0.17-0.08,0.26-0.07,0.3,0c0.05,0.1-0.05,0.21-0.21,0.29c-0.99,0.48-1.95,0.89-2.35,1.08   c-0.35,0.17-1.26,0.67-1.86,0.96c-0.19,0.09-0.32,0.1-0.37-0.01c-0.04-0.07,0-0.15,0.18-0.24c0.22-0.11,0.39-0.23,0.51-0.32   c0.27-0.21,0.24-0.5,0.07-0.95c-0.23-0.66-0.81-1.84-1.51-3.29L172.78,224.19z M198.34,217.43c-0.09,0.07-0.24,0.07-0.33-0.03   c-0.08-0.1-0.05-0.32-0.02-0.54c0.46-3.06,1.31-7.16-0.96-9.83c-1.7-1.99-3.14-1.47-3.78-0.93c-0.54,0.46-0.88,0.91-0.96,1.59   c-0.05,0.55,0.22,1.33,0.5,1.67c0.11,0.12,0.17,0.27,0.04,0.38c-0.07,0.06-0.18-0.01-0.32-0.15c-0.11-0.1-1.06-1.1-1.37-1.47   c-0.1-0.12-0.13-0.18-0.06-0.38c0.28-0.67,0.77-1.48,1.89-2.42c2.23-1.89,4.22-1.48,5.47,0.01c2.09,2.45,1.17,6.89,0.64,9.58   c-0.02,0.1,0.04,0.12,0.1,0.06l0.86-0.73c0.22-0.18,1.71-1.46,2.12-1.92c0.79-0.84,0.85-1.62,0.49-2.35   c-0.1-0.18-0.1-0.27-0.02-0.33c0.09-0.08,0.2,0.03,0.31,0.15c0.17,0.21,0.92,1.59,1.17,2.12c0.18,0.43,0.01,0.64-0.78,1.31   L198.34,217.43z M206.27,206.49c1.49,1.39,3.55,0.97,5.23-0.82c1.91-2.03,1.74-4.39,0.31-5.72c-1.51-1.41-3.52-0.76-4.79-0.33   c0.37-0.91,0.7-2.69-0.58-3.88c-1.18-1.09-2.8-0.72-4.18,0.76c-1.93,2.06-1.44,4.04-0.49,4.92c1.03,0.96,2.4,0.83,3.87,0.31   C205,203.34,204.92,205.23,206.27,206.49 M202.64,197.11c0.68-0.73,1.78-0.83,2.69,0.01c1.23,1.14,0.92,2.43,0.75,2.92   c-1.65,0.53-2.64,0.59-3.39-0.12C202.02,199.29,201.66,198.16,202.64,197.11 M211.02,205.04c-0.91,0.98-2.47,1.01-3.55,0.01   c-1.24-1.16-1.26-2.62-1.02-3.62c1.64-0.49,3.12-0.93,4.33,0.2C211.91,202.67,211.91,204.1,211.02,205.04 M221.94,177.76   c-0.79-0.42-1.43-0.75-1.92-1.02c-0.35-0.19-0.53-0.28-0.65-0.06c-0.15,0.28-0.16,1.68-0.2,2.07c-0.01,0.09-0.02,0.18-0.05,0.24   c-0.02,0.05-0.13,0.08-0.22,0.03s-0.12-0.16-0.12-0.26c0-0.07-0.35-3.86-0.46-4.58c-0.02-0.18-0.05-0.36,0.01-0.48   c0.07-0.13,0.26-0.09,0.4-0.01c0.12,0.06,1.53,0.91,3.78,2.1l2.72,1.43c1.41,0.75,2.66,1.41,3.34,1.69   c0.49,0.2,0.76,0.25,1.11-0.16c0.16-0.2,0.54-0.8,0.6-0.92c0.03-0.06,0.12-0.1,0.22-0.05c0.1,0.06,0.09,0.14,0.01,0.31   c-0.59,1.11-1.14,2.02-1.35,2.42c-0.18,0.33-0.79,1.59-1.29,2.53c-0.09,0.16-0.16,0.23-0.26,0.18c-0.1-0.05-0.12-0.13-0.09-0.19   c0.09-0.16,0.44-0.93,0.52-1.23c0.15-0.52-0.02-0.71-0.47-1c-0.61-0.4-1.85-1.09-3.27-1.82L221.94,177.76z M230.42,171.16   c1.9,0.74,3.66-0.43,4.54-2.72c1-2.6-0.04-4.73-1.87-5.43c-1.93-0.74-3.56,0.61-4.57,1.49c0-0.98-0.36-2.75-2-3.38   c-1.51-0.58-2.87,0.38-3.6,2.27c-1.02,2.63,0.18,4.28,1.4,4.74c1.32,0.51,2.54-0.13,3.7-1.15   C228.06,168.72,228.69,170.5,230.42,171.16 M223.53,163.82c0.36-0.93,1.34-1.44,2.5-0.99c1.57,0.6,1.76,1.9,1.8,2.42   c-1.34,1.11-2.23,1.53-3.2,1.16C223.77,166.08,223.01,165.17,223.53,163.82 M234.29,168.05c-0.48,1.25-1.91,1.86-3.29,1.34   c-1.59-0.61-2.15-1.96-2.31-2.98c1.34-1.07,2.55-2.03,4.1-1.43C234.21,165.51,234.76,166.84,234.29,168.05 M238.05,158.41   c-0.21,0.24-0.37,0.23-0.71,0.15c-0.54-0.13-1.51-0.36-2.02-0.57c-0.15-0.07-0.27-0.16-0.24-0.25c0.03-0.11,0.13-0.12,0.31-0.07   c1.73,0.43,2.43-0.52,2.71-1.65c0.33-1.29-0.19-2.87-2.29-3.39c-2.58-0.64-4.35,1.89-4.85,3.11c-0.08,0.19-0.19,0.28-0.4,0.21   l-4.17-1.43c-0.15-0.06-0.18-0.18-0.13-0.36l0.99-3.94c0.11-0.45,0.15-0.73,0.16-0.92c0.03-0.18,0.02-0.29,0.04-0.34   c0.03-0.13,0.1-0.14,0.34-0.08c0.34,0.08,1.04,0.31,2.01,0.72c0.09,0.04,0.18,0.11,0.15,0.22c-0.02,0.1-0.13,0.11-0.26,0.08   c-0.45-0.11-0.9-0.1-1.23,1.2l-0.73,2.93l1.91,0.72c0.99-2.3,3.05-4.9,5.85-4.2c2.15,0.53,4.15,2.69,3.22,6.42   C238.59,157.48,238.34,158.06,238.05,158.41 M233.77,136.57c4.62,0.58,7.01,4.98,7.71,7.13c0.04,0.09,0.05,0.17,0.03,0.31   c-0.01,0.06-0.1,0.13-0.18,0.13c-0.12-0.01-0.2-0.14-0.26-0.23c-0.82-1.84-3.2-4.75-7.09-5.24c-2.92-0.37-4.37,0.71-4.52,1.97   c-0.15,1.18,0.81,2.1,2.21,2.28c2.52,0.32,3.33-1.24,3.4-1.8c0.07-0.58,0.02-0.92-0.05-1.15c-0.08-0.19-0.15-0.28-0.14-0.35   s0.09-0.12,0.17-0.11c0.04,0.01,0.14,0.07,0.17,0.1c0.45,0.54,0.59,1.43,0.48,2.27c-0.3,2.36-2.22,3.13-3.61,2.95   c-2.23-0.28-3.63-2.16-3.31-4.69C229.1,137.46,231.27,136.25,233.77,136.57"/>
</svg>